<svg version="1.1" xmlns="http://www.w3.org/2000/svg" viewBox="0 0 438.3535102546215 433.0855560255702" width="438.3535102546215" height="433.0855560255702" filter="invert(93%) hue-rotate(180deg)">
  <!-- svg-source:excalidraw -->
  
  <defs>
    <style class="style-fonts">
      @font-face {
        font-family: "Virgil";
        src: url("https://excalidraw.com/Virgil.woff2");
      }
      @font-face {
        font-family: "Cascadia";
        src: url("https://excalidraw.com/Cascadia.woff2");
      }
    </style>
    
  </defs>
  <rect x="0" y="0" width="438.3535102546215" height="433.0855560255702" fill="#FFF"></rect><g stroke-linecap="round"><g transform="translate(189.1135200202465 422) rotate(0 -4.623620799845099 -201.8858252399834)"><path d="M-0.72 -1 C-2.5 -68.33, -8.23 -337.41, -9.95 -404.86 M1.1 1.09 C-0.81 -65.95, -8.2 -335.6, -10.35 -403.24" stroke="#000000" stroke-width="1" fill="none"></path></g><g transform="translate(189.1135200202465 422) rotate(0 -4.623620799845099 -201.8858252399834)"><path d="M-0.93 -373.61 C-2.8 -385.48, -8.21 -395.32, -9.98 -402.47 M-0.2 -376.14 C-1.54 -383.61, -4.92 -392.37, -10.48 -402.92" stroke="#000000" stroke-width="1" fill="none"></path></g><g transform="translate(189.1135200202465 422) rotate(0 -4.623620799845099 -201.8858252399834)"><path d="M-21.45 -373.01 C-15.94 -384.97, -13.97 -395.03, -9.98 -402.47 M-20.71 -375.54 C-16.02 -382.99, -13.37 -391.93, -10.48 -402.92" stroke="#000000" stroke-width="1" fill="none"></path></g></g><mask></mask><g stroke-linecap="round"><g transform="translate(15.113520020246511 228) rotate(0 194.18583335701842 -6.935456159529281)"><path d="M0.35 -0.34 C65.24 -2.2, 324.44 -9.94, 389.29 -11.96 M-0.92 -1.56 C63.84 -3.67, 323.52 -11.38, 388.5 -13.54" stroke="#000000" stroke-width="1" fill="none"></path></g><g transform="translate(15.113520020246511 228) rotate(0 194.18583335701842 -6.935456159529281)"><path d="M360.09 -1.91 C370.71 -4.97, 378.16 -9.6, 388.56 -15.29 M360.56 -2.27 C367.37 -5.5, 374.66 -7.93, 388.7 -13.35" stroke="#000000" stroke-width="1" fill="none"></path></g><g transform="translate(15.113520020246511 228) rotate(0 194.18583335701842 -6.935456159529281)"><path d="M359.45 -22.42 C370.13 -19.4, 377.77 -17.95, 388.56 -15.29 M359.92 -22.78 C367.05 -21, 374.5 -18.42, 388.7 -13.35" stroke="#000000" stroke-width="1" fill="none"></path></g></g><mask></mask><g stroke-linecap="round"><g transform="translate(11.113520020246511 48) rotate(0 86.88399537205696 85.04533260933121)"><path d="M-1.11 -0.32 C28.08 28.11, 145.67 141.86, 174.88 170.41 M0.5 -1.54 C29.64 27.06, 145.57 142.67, 174.4 171.63" stroke="#000000" stroke-width="1" fill="none"></path></g></g><mask></mask><g stroke-linecap="round"><g transform="translate(334.1135200202465 53) rotate(0 -74.20571009795648 84.01786154318135)"><path d="M-0.3 0.82 C-25.33 28.67, -125.49 140.02, -150.16 167.83 M1.75 0.2 C-22.94 27.66, -122.97 138.55, -148.06 166.15" stroke="#000000" stroke-width="1" fill="none"></path></g></g><mask></mask><g transform="translate(135.1135200202465 10) rotate(0 4.689994812011719 12.5)"><text x="0" y="0" font-family="Virgil, Segoe UI Emoji" font-size="20px" fill="#000000" text-anchor="start" style="white-space: pre;" direction="ltr" dominant-baseline="text-before-edge">y</text></g><g transform="translate(290.1135200202465 24) rotate(0 19.839981079101562 12.5)"><text x="0" y="0" font-family="Virgil, Segoe UI Emoji" font-size="20px" fill="#000000" text-anchor="start" style="white-space: pre;" direction="ltr" dominant-baseline="text-before-edge">y=|x|</text></g><g transform="translate(417.1135200202465 201) rotate(0 5.6199951171875 12.5)"><text x="0" y="0" font-family="Virgil, Segoe UI Emoji" font-size="20px" fill="#000000" text-anchor="start" style="white-space: pre;" direction="ltr" dominant-baseline="text-before-edge">x</text></g></svg>