<svg version="1.1" xmlns="http://www.w3.org/2000/svg" viewBox="0 0 792.6247623635944 440.6106101870537" width="792.6247623635944" height="440.6106101870537" filter="invert(93%) hue-rotate(180deg)">
  <!-- svg-source:excalidraw -->
  
  <defs>
    <style class="style-fonts">
      @font-face {
        font-family: "Virgil";
        src: url("https://unpkg.com/@excalidraw/excalidraw@0.15.3/dist/excalidraw-assets/Virgil.woff2");
      }
      @font-face {
        font-family: "Cascadia";
        src: url("https://unpkg.com/@excalidraw/excalidraw@0.15.3/dist/excalidraw-assets/Cascadia.woff2");
      }
    </style>
  </defs>
  <rect x="0" y="0" width="792.6247623635944" height="440.6106101870537" fill="#ffffff"></rect><g stroke-linecap="round"><g transform="translate(397.3242659101751 429.64273890294135) rotate(0 -1 -209.5)"><path d="M-0.3 0.97 C-0.92 -69.15, -2.26 -349.8, -2.69 -419.64 M1.74 0.43 C1.43 -69.03, 0.02 -348.39, -0.33 -418.44" stroke="#000000" stroke-width="1" fill="none"></path></g><g transform="translate(397.3242659101751 429.64273890294135) rotate(0 -1 -209.5)"><path d="M11.68 -391.45 C4.74 -402.58, 3.36 -413.4, -1.54 -418.2 M10.5 -389.57 C8.1 -395.28, 6.57 -402.35, -0.58 -418.49" stroke="#000000" stroke-width="1" fill="none"></path></g><g transform="translate(397.3242659101751 429.64273890294135) rotate(0 -1 -209.5)"><path d="M-8.84 -391.34 C-7.88 -402.47, -1.35 -413.33, -1.54 -418.2 M-10.02 -389.47 C-8.26 -395.16, -5.62 -402.25, -0.58 -418.49" stroke="#000000" stroke-width="1" fill="none"></path></g></g><mask></mask><g stroke-linecap="round"><g transform="translate(60.324265910175114 238.64273890294135) rotate(0 361 -3)"><path d="M-1.1 0.53 C119.14 -0.35, 601.72 -5.36, 722.3 -6.34 M0.53 -0.23 C120.56 -0.85, 601.3 -3.8, 721.51 -4.97" stroke="#000000" stroke-width="1" fill="none"></path></g><g transform="translate(60.324265910175114 238.64273890294135) rotate(0 361 -3)"><path d="M694.29 6 C703.38 2.48, 715.56 -2.82, 722.93 -3.2 M693.74 5.69 C701.58 2.03, 710.58 -2.08, 722.49 -5.06" stroke="#000000" stroke-width="1" fill="none"></path></g><g transform="translate(60.324265910175114 238.64273890294135) rotate(0 361 -3)"><path d="M694.13 -14.52 C703.1 -10.41, 715.34 -8.08, 722.93 -3.2 M693.58 -14.83 C701.57 -12.05, 710.62 -9.73, 722.49 -5.06" stroke="#000000" stroke-width="1" fill="none"></path></g></g><mask></mask><g stroke-linecap="round" transform="translate(121.32426591017511 101.64273890294135) rotate(0 274.5 135)"><path d="M315.61 2.36 C338.2 2.12, 362.43 7.57, 384.11 12.06 C405.8 16.55, 427.12 22.17, 445.74 29.31 C464.36 36.45, 481.61 45.53, 495.85 54.89 C510.09 64.26, 522.58 74.65, 531.17 85.49 C539.77 96.33, 544.99 108.09, 547.41 119.92 C549.83 131.75, 549.26 144.92, 545.71 156.46 C542.15 168, 535.74 178.71, 526.1 189.16 C516.45 199.61, 502.74 210.19, 487.83 219.17 C472.92 228.14, 455.46 236.22, 436.63 243.02 C417.8 249.82, 396.85 255.76, 374.85 259.96 C352.84 264.16, 328.44 266.84, 304.59 268.22 C280.74 269.59, 255.34 269.78, 231.75 268.19 C208.16 266.61, 184.67 263.39, 163.04 258.72 C141.42 254.04, 120.17 247.51, 102 240.15 C83.83 232.79, 67.95 223.79, 54.02 214.54 C40.08 205.28, 27.15 195.39, 18.39 184.64 C9.63 173.88, 4.06 161.78, 1.45 149.99 C-1.17 138.21, -1.08 125.34, 2.71 113.93 C6.49 102.52, 14.51 92.08, 24.18 81.55 C33.84 71.02, 46.16 59.97, 60.68 50.74 C75.2 41.51, 92.1 33.24, 111.3 26.15 C130.51 19.07, 153.67 12.38, 175.91 8.23 C198.14 4.08, 219.51 2.08, 244.71 1.25 C269.91 0.43, 312.12 2.39, 327.13 3.28 C342.13 4.17, 335.68 4.46, 334.73 6.61 M191.76 6.71 C211.59 1.08, 238.34 -0.05, 262.15 -0.82 C285.95 -1.6, 311.54 -0.6, 334.59 2.06 C357.64 4.72, 379.3 9.33, 400.43 15.14 C421.56 20.95, 443.76 29.08, 461.37 36.93 C478.98 44.77, 493.62 52.84, 506.09 62.21 C518.55 71.59, 529.08 82.21, 536.18 93.18 C543.28 104.15, 547.39 116.38, 548.66 128.06 C549.93 139.74, 549.17 151.77, 543.8 163.28 C538.43 174.8, 527.8 186.69, 516.45 197.15 C505.1 207.61, 491.61 217.56, 475.71 226.04 C459.82 234.52, 441.04 241.52, 421.08 248.04 C401.13 254.55, 378.71 261.66, 356 265.11 C333.28 268.56, 308.43 268.59, 284.79 268.73 C261.15 268.87, 237.12 268.08, 214.15 265.95 C191.19 263.81, 167.71 261.09, 147.01 255.93 C126.31 250.77, 107.1 243.31, 89.95 234.99 C72.81 226.67, 57.01 216.11, 44.15 206.01 C31.28 195.91, 19.95 185.49, 12.78 174.39 C5.61 163.3, 2.24 150.96, 1.12 139.43 C0 127.89, 1.03 116.44, 6.07 105.17 C11.11 93.91, 20.49 82.1, 31.36 71.82 C42.24 61.54, 55.52 52.19, 71.33 43.51 C87.14 34.83, 106.09 25.96, 126.24 19.74 C146.39 13.53, 181.12 8.02, 192.22 6.21 C203.32 4.41, 191.36 7.01, 192.83 8.92" stroke="#000000" stroke-width="1" fill="none"></path></g><g stroke-linecap="round"><g transform="translate(206.64024444471087 234.19774932501429) rotate(0 94.34201073273212 -65.27750521103647)"><path d="M-1.1 0.14 C30.54 -21.81, 158.09 -109.04, 189.57 -130.83 M0.52 -0.83 C32.11 -22.68, 157.48 -108.02, 189.09 -129.43" stroke="#1864ab" stroke-width="1" fill="none"></path></g></g><mask></mask><g stroke-linecap="round"><g transform="translate(395.3242659101751 99.64273890294135) rotate(0 102.71642012872593 67.0879902295645)"><path d="M0.69 0.42 C34.78 22.61, 170.82 111.79, 205.03 134.21 M-0.41 -0.41 C33.44 22.51, 169.56 113.54, 203.86 135.76" stroke="#1864ab" stroke-width="1" fill="none"></path></g></g><mask></mask><g stroke-linecap="round"><g transform="translate(599.7571061676271 231.64273890294135) rotate(0 -28.25643699744677 -53.835613831708855)"><path d="M-1.02 -0.12 C-10.25 -17.91, -46.76 -88.89, -56.05 -106.86 M0.64 -1.23 C-8.65 -19.34, -47.04 -90.97, -56.75 -108.56" stroke="#c92a2a" stroke-width="1" fill="none"></path></g></g><mask></mask><g stroke-linecap="round"><g transform="translate(206.8179695692422 235.96588611111105) rotate(0 165.24107267913283 -55.90919720622921)"><path d="M-0.8 -0.92 C54.4 -19.59, 276.41 -94.57, 331.59 -112.92 M0.98 1.21 C56.08 -17.27, 276.49 -92.94, 331.22 -111.96" stroke="#c92a2a" stroke-width="1" fill="none"></path></g></g><mask></mask><g transform="translate(421.47428738389283 172.94197860236613) rotate(0 2.6299972534179688 12.5)"><text x="0" y="0" font-family="Virgil, Segoe UI Emoji" font-size="20px" fill="#c92a2a" text-anchor="start" style="white-space: pre;" direction="ltr" dominant-baseline="text-before-edge">l</text></g><g transform="translate(431.47428738389283 184.55452628609828) rotate(0 2.208221435546875 10.193726158133927)"><text x="0" y="0" font-family="Virgil, Segoe UI Emoji" font-size="16.309961853014293px" fill="#c92a2a" text-anchor="start" style="white-space: pre;" direction="ltr" dominant-baseline="text-before-edge">1</text></g><g transform="translate(580.329528987334 160.29116911688863) rotate(0 2.6299972534179688 12.5)"><text x="0" y="0" font-family="Virgil, Segoe UI Emoji" font-size="20px" fill="#c92a2a" text-anchor="start" style="white-space: pre;" direction="ltr" dominant-baseline="text-before-edge">l</text></g><g transform="translate(590.329528987334 171.90371680062077) rotate(0 5.8016815185546875 10.193726158133927)"><text x="0" y="0" font-family="Virgil, Segoe UI Emoji" font-size="16.309961853014293px" fill="#c92a2a" text-anchor="start" style="white-space: pre;" direction="ltr" dominant-baseline="text-before-edge">2</text></g><g transform="translate(544.5656347155008 96.11693332316202) rotate(0 20.40998077392578 12.5)"><text x="0" y="0" font-family="Virgil, Segoe UI Emoji" font-size="20px" fill="#c92a2a" text-anchor="start" style="white-space: pre;" direction="ltr" dominant-baseline="text-before-edge">(x,y)</text></g><g stroke-linecap="round"><g transform="translate(206.64198911011314 253.09121781167318) rotate(0 -0.6624459367860709 -15.474675620716482)"><path d="M0.28 -0.48 C-0.13 -5.95, -1.06 -26.58, -1.45 -31.78 M-1.03 -1.78 C-1.7 -6.59, -2.71 -25.85, -2.46 -30.68" stroke="#000000" stroke-width="1" fill="none"></path></g></g><mask></mask><g stroke-linecap="round"><g transform="translate(603.2291647902399 247.93881706642526) rotate(0 -0.5 -14.5)"><path d="M0.17 1.13 C-0.18 -3.48, -1.12 -23.46, -1.43 -28.67 M-1.21 0.68 C-1.8 -4.22, -2.94 -25.6, -2.6 -30.63" stroke="#000000" stroke-width="1" fill="none"></path></g></g><mask></mask><g transform="translate(199.46600865098415 258.7104431833269) rotate(0 5.739997863769531 12.5)"><text x="0" y="0" font-family="Virgil, Segoe UI Emoji" font-size="20px" fill="#000000" text-anchor="start" style="white-space: pre;" direction="ltr" dominant-baseline="text-before-edge">F</text></g><g transform="translate(208.46600865098415 277.93553855079085) rotate(0 1.708587646484375 7.887452316268025)"><text x="0" y="0" font-family="Virgil, Segoe UI Emoji" font-size="12.61992370602884px" fill="#000000" text-anchor="start" style="white-space: pre;" direction="ltr" dominant-baseline="text-before-edge">1</text></g><g transform="translate(594.0191657057671 252.55891477078012) rotate(0 5.739997863769531 12.5)"><text x="0" y="0" font-family="Virgil, Segoe UI Emoji" font-size="20px" fill="#000000" text-anchor="start" style="white-space: pre;" direction="ltr" dominant-baseline="text-before-edge">F</text></g><g transform="translate(603.0191657057671 271.78401013824407) rotate(0 4.488975524902344 7.887452316268025)"><text x="0" y="0" font-family="Virgil, Segoe UI Emoji" font-size="12.61992370602884px" fill="#000000" text-anchor="start" style="white-space: pre;" direction="ltr" dominant-baseline="text-before-edge">2</text></g><g transform="translate(360.3242659101751 13.642738902941346) rotate(0 4.689994812011719 12.5)"><text x="0" y="0" font-family="Virgil, Segoe UI Emoji" font-size="20px" fill="#000000" text-anchor="start" style="white-space: pre;" direction="ltr" dominant-baseline="text-before-edge">y</text></g><g transform="translate(766.3242659101751 196.64273890294135) rotate(0 5.6199951171875 12.5)"><text x="0" y="0" font-family="Virgil, Segoe UI Emoji" font-size="20px" fill="#000000" text-anchor="start" style="white-space: pre;" direction="ltr" dominant-baseline="text-before-edge">x</text></g><g stroke-linecap="round"><g transform="translate(195.98857617138592 292.47175072154846) rotate(0 -27.239561700068094 34.58549409069644)"><path d="M0.83 -0.61 C-8.52 10.93, -46.24 57.54, -55.49 68.97 M-0.19 1.69 C-9.23 13.44, -44.08 59.24, -53.3 70.4" stroke="#000000" stroke-width="1" fill="none"></path></g><g transform="translate(195.98857617138592 292.47175072154846) rotate(0 -27.239561700068094 34.58549409069644)"><path d="M-44.92 40.23 C-47.62 51.7, -52.58 63.66, -53.54 69.23 M-44.33 42.13 C-45.11 47.98, -47.69 55.5, -52.69 69.42" stroke="#000000" stroke-width="1" fill="none"></path></g><g transform="translate(195.98857617138592 292.47175072154846) rotate(0 -27.239561700068094 34.58549409069644)"><path d="M-28.81 52.94 C-37.16 60.04, -47.8 67.52, -53.54 69.23 M-28.22 54.83 C-32.78 57.82, -39.08 62.42, -52.69 69.42" stroke="#000000" stroke-width="1" fill="none"></path></g></g><mask></mask><g transform="translate(76.32426591017511 371.64273890294135) rotate(0 57.64994812011719 12.5)"><text x="0" y="0" font-family="Virgil, Segoe UI Emoji" font-size="20px" fill="#000000" text-anchor="start" style="white-space: pre;" direction="ltr" dominant-baseline="text-before-edge">Brennpunkte</text></g><g stroke-linecap="round"><g transform="translate(585.1124979899549 280.48121972146214) rotate(0 -192.97687575122814 44.78677647088642)"><path d="M-0.14 -0.48 C-64.71 14.43, -322.65 74.6, -386.97 89.76 M-1.67 -1.78 C-65.92 13.33, -320.59 76.33, -384.79 91.39" stroke="#000000" stroke-width="1" fill="none"></path></g><g transform="translate(585.1124979899549 280.48121972146214) rotate(0 -192.97687575122814 44.78677647088642)"><path d="M-360.6 73.11 C-367.95 80.26, -375.3 87.03, -383.73 89.57 M-359.82 74.11 C-365.07 78.81, -370.27 82.72, -384.14 90.69" stroke="#000000" stroke-width="1" fill="none"></path></g><g transform="translate(585.1124979899549 280.48121972146214) rotate(0 -192.97687575122814 44.78677647088642)"><path d="M-355.78 93.05 C-364.81 93.42, -373.79 93.42, -383.73 89.57 M-355 94.06 C-361.4 94.18, -367.71 93.5, -384.14 90.69" stroke="#000000" stroke-width="1" fill="none"></path></g></g><mask></mask><g transform="translate(492.2461569747169 238.4531922527986) rotate(0 5.469993591308594 12.5)"><text x="0" y="0" font-family="Virgil, Segoe UI Emoji" font-size="20px" fill="#d9480f" text-anchor="start" style="white-space: pre;" direction="ltr" dominant-baseline="text-before-edge">e</text></g><g transform="translate(286.9024015765824 149.34051091358575) rotate(0 6.669990539550781 12.499999999999986)"><text x="0" y="0" font-family="Virgil, Segoe UI Emoji" font-size="20px" fill="#1864ab" text-anchor="start" style="white-space: pre;" direction="ltr" dominant-baseline="text-before-edge">a</text></g><g transform="translate(489.5947651122967 172.42926797803926) rotate(0 6.669990539550781 12.5)"><text x="0" y="0" font-family="Virgil, Segoe UI Emoji" font-size="20px" fill="#1864ab" text-anchor="start" style="white-space: pre;" direction="ltr" dominant-baseline="text-before-edge">a</text></g><g stroke-linecap="round"><g transform="translate(395.54353520949985 98.99461971784348) rotate(0 0 67.5694855521804)"><path d="M0.42 0.4 C0.59 22.75, 0.92 111.52, 0.75 134 M-0.81 -0.44 C-0.72 22.03, 0.33 112.09, 0.2 134.93" stroke="#2b8a3e" stroke-width="4" fill="none"></path></g></g><mask></mask><g transform="translate(373.020373358773 151.99029466073006) rotate(0 5.079994201660156 12.5)"><text x="0" y="0" font-family="Virgil, Segoe UI Emoji" font-size="20px" fill="#2b8a3e" text-anchor="start" style="white-space: pre;" direction="ltr" dominant-baseline="text-before-edge">b</text></g><g stroke-linecap="round"><g transform="translate(119.96602550648964 238.10826644292075) rotate(0 136.46386297793293 -1.987337810358241)"><path d="M0.01 0.53 C45.56 0.23, 228.41 -2.1, 273.71 -2.93 M-1.44 -0.24 C43.99 -0.75, 227.25 -3.98, 273.17 -4.51" stroke="#1864ab" stroke-width="4" fill="none"></path></g></g><mask></mask><g transform="translate(256.3168862409167 239.59479032019755) rotate(0 6.669990539550781 12.5)"><text x="0" y="0" font-family="Virgil, Segoe UI Emoji" font-size="20px" fill="#1864ab" text-anchor="start" style="white-space: pre;" direction="ltr" dominant-baseline="text-before-edge">a</text></g><g stroke-linecap="round"><g transform="translate(398.19331895664413 234.13359082220427) rotate(0 100.43329966472055 0)"><path d="M0.13 0.55 C33.77 0.65, 167.33 0.83, 200.62 0.92 M-1.26 -0.21 C32.3 -0.46, 165.63 -0.64, 199.55 -0.72" stroke="#d9480f" stroke-width="4" fill="none"></path></g></g><mask></mask><g transform="translate(118.64113363291747 236.7833745693486) rotate(0 0.00005000000000165983 0.00004999999998744897)" stroke="none"><path fill="#000000" d="M 6.28,-6.28 Q 6.28,-6.28 7.11,-5.11 7.95,-3.94 8.37,-2.57 8.80,-1.19 8.76,0.23 8.72,1.67 8.22,3.02 7.73,4.37 6.83,5.49 5.93,6.61 4.72,7.38 3.50,8.15 2.11,8.50 0.72,8.85 -0.71,8.73 -2.14,8.61 -3.46,8.05 -4.78,7.48 -5.85,6.52 -6.92,5.56 -7.63,4.31 -8.33,3.06 -8.60,1.65 -8.87,0.23 -8.68,-1.18 -8.49,-2.60 -7.85,-3.89 -7.21,-5.18 -6.19,-6.19 -5.18,-7.21 -3.89,-7.85 -2.60,-8.49 -1.18,-8.68 0.24,-8.87 1.65,-8.60 3.06,-8.33 4.31,-7.62 5.56,-6.92 6.52,-5.85 7.48,-4.78 8.05,-3.46 8.62,-2.14 8.73,-0.70 8.85,0.72 8.50,2.11 8.15,3.51 7.38,4.72 6.61,5.93 5.48,6.83 4.36,7.73 3.02,8.22 1.67,8.72 0.23,8.76 -1.20,8.80 -2.57,8.37 -3.94,7.95 -5.11,7.11 -6.28,6.27 -6.28,6.27 -6.28,6.28 -6.94,5.43 -7.60,4.59 -8.04,3.61 -8.48,2.64 -8.67,1.58 -8.86,0.53 -8.80,-0.53 -8.73,-1.60 -8.41,-2.62 -8.09,-3.64 -7.54,-4.56 -6.99,-5.47 -6.23,-6.23 -5.47,-6.99 -4.56,-7.54 -3.64,-8.10 -2.62,-8.41 -1.60,-8.73 -0.53,-8.80 0.53,-8.86 1.59,-8.67 2.64,-8.48 3.61,-8.04 4.59,-7.60 5.43,-6.94 6.28,-6.28 6.28,-6.28 L 6.28,-6.28 Z"></path></g><g transform="translate(396.69070195854067 100.31951159141568) rotate(0 0.00004999999998744897 0.00005000000000165983)" stroke="none"><path fill="#000000" d="M 6.28,-6.28 Q 6.28,-6.28 7.11,-5.11 7.95,-3.94 8.37,-2.57 8.80,-1.19 8.76,0.23 8.72,1.67 8.22,3.02 7.73,4.37 6.83,5.49 5.93,6.61 4.72,7.38 3.50,8.15 2.11,8.50 0.72,8.85 -0.71,8.73 -2.14,8.61 -3.46,8.05 -4.78,7.48 -5.85,6.52 -6.92,5.56 -7.63,4.31 -8.33,3.06 -8.60,1.65 -8.87,0.23 -8.68,-1.18 -8.49,-2.60 -7.85,-3.89 -7.21,-5.18 -6.19,-6.19 -5.18,-7.21 -3.89,-7.85 -2.60,-8.49 -1.18,-8.68 0.24,-8.87 1.65,-8.60 3.06,-8.33 4.31,-7.62 5.56,-6.92 6.52,-5.85 7.48,-4.78 8.05,-3.46 8.62,-2.14 8.73,-0.70 8.85,0.72 8.50,2.11 8.15,3.51 7.38,4.72 6.61,5.93 5.48,6.83 4.36,7.73 3.02,8.22 1.67,8.72 0.23,8.76 -1.20,8.80 -2.57,8.37 -3.94,7.95 -5.11,7.11 -6.28,6.27 -6.28,6.27 -6.28,6.28 -6.94,5.43 -7.60,4.59 -8.04,3.61 -8.48,2.64 -8.67,1.58 -8.86,0.53 -8.80,-0.53 -8.73,-1.60 -8.41,-2.62 -8.09,-3.64 -7.54,-4.56 -6.99,-5.47 -6.23,-6.23 -5.47,-6.99 -4.56,-7.54 -3.64,-8.10 -2.62,-8.41 -1.60,-8.73 -0.53,-8.80 0.53,-8.86 1.59,-8.67 2.64,-8.48 3.61,-8.04 4.59,-7.60 5.43,-6.94 6.28,-6.28 6.28,-6.28 L 6.28,-6.28 Z"></path></g><g transform="translate(10 199.68640210932796) rotate(0 51.12995147705078 12.5)"><text x="0" y="0" font-family="Virgil, Segoe UI Emoji" font-size="20px" fill="#000000" text-anchor="start" style="white-space: pre;" direction="ltr" dominant-baseline="text-before-edge">Punkt(a,0)</text></g><g transform="translate(286.1183412952737 67.94613348783315) rotate(0 49.539955139160156 12.5)"><text x="0" y="0" font-family="Virgil, Segoe UI Emoji" font-size="20px" fill="#000000" text-anchor="start" style="white-space: pre;" direction="ltr" dominant-baseline="text-before-edge">Punkt(0,b)</text></g></svg>