<svg version="1.1" xmlns="http://www.w3.org/2000/svg" viewBox="0 0 743.3969449877738 440.6106101870537" width="743.3969449877738" height="440.6106101870537" filter="invert(93%) hue-rotate(180deg)">
  <!-- svg-source:excalidraw -->
  
  <defs>
    <style class="style-fonts">
      @font-face {
        font-family: "Virgil";
        src: url("https://unpkg.com/@excalidraw/excalidraw@0.15.3/dist/excalidraw-assets/Virgil.woff2");
      }
      @font-face {
        font-family: "Cascadia";
        src: url("https://unpkg.com/@excalidraw/excalidraw@0.15.3/dist/excalidraw-assets/Cascadia.woff2");
      }
    </style>
  </defs>
  <rect x="0" y="0" width="743.3969449877738" height="440.6106101870537" fill="#ffffff"></rect><g stroke-linecap="round"><g transform="translate(348.0964485343546 429.64273890294135) rotate(0 -1 -209.5)"><path d="M-0.3 0.97 C-0.92 -69.15, -2.26 -349.8, -2.69 -419.64 M1.74 0.43 C1.43 -69.03, 0.02 -348.39, -0.33 -418.44" stroke="#000000" stroke-width="1" fill="none"></path></g><g transform="translate(348.0964485343546 429.64273890294135) rotate(0 -1 -209.5)"><path d="M11.68 -391.45 C4.74 -402.58, 3.36 -413.4, -1.54 -418.2 M10.5 -389.57 C8.1 -395.28, 6.57 -402.35, -0.58 -418.49" stroke="#000000" stroke-width="1" fill="none"></path></g><g transform="translate(348.0964485343546 429.64273890294135) rotate(0 -1 -209.5)"><path d="M-8.84 -391.34 C-7.88 -402.47, -1.35 -413.33, -1.54 -418.2 M-10.02 -389.47 C-8.26 -395.16, -5.62 -402.25, -0.58 -418.49" stroke="#000000" stroke-width="1" fill="none"></path></g></g><mask></mask><g stroke-linecap="round"><g transform="translate(11.096448534354579 238.64273890294135) rotate(0 361 -3)"><path d="M-1.1 0.53 C119.14 -0.35, 601.72 -5.36, 722.3 -6.34 M0.53 -0.23 C120.56 -0.85, 601.3 -3.8, 721.51 -4.97" stroke="#000000" stroke-width="1" fill="none"></path></g><g transform="translate(11.096448534354579 238.64273890294135) rotate(0 361 -3)"><path d="M694.29 6 C703.38 2.48, 715.56 -2.82, 722.93 -3.2 M693.74 5.69 C701.58 2.03, 710.58 -2.08, 722.49 -5.06" stroke="#000000" stroke-width="1" fill="none"></path></g><g transform="translate(11.096448534354579 238.64273890294135) rotate(0 361 -3)"><path d="M694.13 -14.52 C703.1 -10.41, 715.34 -8.08, 722.93 -3.2 M693.58 -14.83 C701.57 -12.05, 710.62 -9.73, 722.49 -5.06" stroke="#000000" stroke-width="1" fill="none"></path></g></g><mask></mask><g stroke-linecap="round" transform="translate(72.09644853435458 101.64273890294135) rotate(0 274.5 135)"><path d="M315.61 2.36 C338.2 2.12, 362.43 7.57, 384.11 12.06 C405.8 16.55, 427.12 22.17, 445.74 29.31 C464.36 36.45, 481.61 45.53, 495.85 54.89 C510.09 64.26, 522.58 74.65, 531.17 85.49 C539.77 96.33, 544.99 108.09, 547.41 119.92 C549.83 131.75, 549.26 144.92, 545.71 156.46 C542.15 168, 535.74 178.71, 526.1 189.16 C516.45 199.61, 502.74 210.19, 487.83 219.17 C472.92 228.14, 455.46 236.22, 436.63 243.02 C417.8 249.82, 396.85 255.76, 374.85 259.96 C352.84 264.16, 328.44 266.84, 304.59 268.22 C280.74 269.59, 255.34 269.78, 231.75 268.19 C208.16 266.61, 184.67 263.39, 163.04 258.72 C141.42 254.04, 120.17 247.51, 102 240.15 C83.83 232.79, 67.95 223.79, 54.02 214.54 C40.08 205.28, 27.15 195.39, 18.39 184.64 C9.63 173.88, 4.06 161.78, 1.45 149.99 C-1.17 138.21, -1.08 125.34, 2.71 113.93 C6.49 102.52, 14.51 92.08, 24.18 81.55 C33.84 71.02, 46.16 59.97, 60.68 50.74 C75.2 41.51, 92.1 33.24, 111.3 26.15 C130.51 19.07, 153.67 12.38, 175.91 8.23 C198.14 4.08, 219.51 2.08, 244.71 1.25 C269.91 0.43, 312.12 2.39, 327.13 3.28 C342.13 4.17, 335.68 4.46, 334.73 6.61 M191.76 6.71 C211.59 1.08, 238.34 -0.05, 262.15 -0.82 C285.95 -1.6, 311.54 -0.6, 334.59 2.06 C357.64 4.72, 379.3 9.33, 400.43 15.14 C421.56 20.95, 443.76 29.08, 461.37 36.93 C478.98 44.77, 493.62 52.84, 506.09 62.21 C518.55 71.59, 529.08 82.21, 536.18 93.18 C543.28 104.15, 547.39 116.38, 548.66 128.06 C549.93 139.74, 549.17 151.77, 543.8 163.28 C538.43 174.8, 527.8 186.69, 516.45 197.15 C505.1 207.61, 491.61 217.56, 475.71 226.04 C459.82 234.52, 441.04 241.52, 421.08 248.04 C401.13 254.55, 378.71 261.66, 356 265.11 C333.28 268.56, 308.43 268.59, 284.79 268.73 C261.15 268.87, 237.12 268.08, 214.15 265.95 C191.19 263.81, 167.71 261.09, 147.01 255.93 C126.31 250.77, 107.1 243.31, 89.95 234.99 C72.81 226.67, 57.01 216.11, 44.15 206.01 C31.28 195.91, 19.95 185.49, 12.78 174.39 C5.61 163.3, 2.24 150.96, 1.12 139.43 C0 127.89, 1.03 116.44, 6.07 105.17 C11.11 93.91, 20.49 82.1, 31.36 71.82 C42.24 61.54, 55.52 52.19, 71.33 43.51 C87.14 34.83, 106.09 25.96, 126.24 19.74 C146.39 13.53, 181.12 8.02, 192.22 6.21 C203.32 4.41, 191.36 7.01, 192.83 8.92" stroke="#000000" stroke-width="1" fill="none"></path></g><g stroke-linecap="round"><g transform="translate(272.0964485343546 239.64273890294135) rotate(0 37 -68)"><path d="M-1.1 0.14 C11.43 -22.72, 62.52 -113.57, 74.88 -136.27 M0.52 -0.83 C12.99 -23.58, 61.91 -112.56, 74.4 -134.88" stroke="#1864ab" stroke-width="1" fill="none"></path></g></g><mask></mask><g stroke-linecap="round"><g transform="translate(346.0964485343546 99.64273890294135) rotate(0 85 67.5)"><path d="M0.69 0.42 C28.87 22.75, 141.29 112.48, 169.59 135.03 M-0.41 -0.41 C27.54 22.64, 140.04 114.22, 168.43 136.58" stroke="#1864ab" stroke-width="1" fill="none"></path></g></g><mask></mask><g stroke-linecap="round"><g transform="translate(515.0964485343545 231.64273890294135) rotate(0 -1.5 -51)"><path d="M-1.02 -0.12 C-1.33 -16.96, -2.16 -84.17, -2.54 -101.19 M0.64 -1.23 C0.27 -18.4, -2.44 -86.25, -3.24 -102.88" stroke="#c92a2a" stroke-width="1" fill="none"></path></g></g><mask></mask><g stroke-linecap="round"><g transform="translate(272.0964485343546 235.64273890294135) rotate(0 119.5 -52.5)"><path d="M-0.8 -0.92 C39.15 -18.45, 200.18 -88.89, 240.11 -106.1 M0.98 1.21 C40.83 -16.14, 200.25 -87.26, 239.74 -105.14" stroke="#c92a2a" stroke-width="1" fill="none"></path></g></g><mask></mask><g transform="translate(434.0964485343546 121.64273890294135) rotate(0 2.6299972534179688 12.5)"><text x="0" y="0" font-family="Virgil, Segoe UI Emoji" font-size="20px" fill="#c92a2a" text-anchor="start" style="white-space: pre;" direction="ltr" dominant-baseline="text-before-edge">l</text></g><g transform="translate(444.0964485343546 133.2552865866735) rotate(0 2.2099990844726562 10.193726158133927)"><text x="0" y="0" font-family="Virgil, Segoe UI Emoji" font-size="16.309961853014293px" fill="#c92a2a" text-anchor="start" style="white-space: pre;" direction="ltr" dominant-baseline="text-before-edge">1</text></g><g transform="translate(527.8864494498819 167.64273890294135) rotate(0 2.6299972534179688 12.5)"><text x="0" y="0" font-family="Virgil, Segoe UI Emoji" font-size="20px" fill="#c92a2a" text-anchor="start" style="white-space: pre;" direction="ltr" dominant-baseline="text-before-edge">l</text></g><g transform="translate(537.8864494498819 179.2552865866735) rotate(0 5.8016815185546875 10.193726158133927)"><text x="0" y="0" font-family="Virgil, Segoe UI Emoji" font-size="16.309961853014293px" fill="#c92a2a" text-anchor="start" style="white-space: pre;" direction="ltr" dominant-baseline="text-before-edge">2</text></g><g transform="translate(514.0964485343545 101.64273890294135) rotate(0 20.40998077392578 12.5)"><text x="0" y="0" font-family="Virgil, Segoe UI Emoji" font-size="20px" fill="#c92a2a" text-anchor="start" style="white-space: pre;" direction="ltr" dominant-baseline="text-before-edge">(x,y)</text></g><g stroke-linecap="round"><g transform="translate(271.0964485343546 245.64273890294135) rotate(0 0 -11.5)"><path d="M0.28 -0.48 C0.09 -4.62, 0.05 -19.95, -0.12 -23.83 M-1.03 -1.78 C-1.48 -5.27, -1.6 -19.22, -1.13 -22.73" stroke="#000000" stroke-width="1" fill="none"></path></g></g><mask></mask><g stroke-linecap="round"><g transform="translate(516.0964485343545 244.64273890294135) rotate(0 -0.5 -14.5)"><path d="M0.17 1.13 C-0.18 -3.48, -1.12 -23.46, -1.43 -28.67 M-1.21 0.68 C-1.8 -4.22, -2.94 -25.6, -2.6 -30.63" stroke="#000000" stroke-width="1" fill="none"></path></g></g><mask></mask><g transform="translate(263.0964485343546 247.64273890294135) rotate(0 5.739997863769531 12.5)"><text x="0" y="0" font-family="Virgil, Segoe UI Emoji" font-size="20px" fill="#000000" text-anchor="start" style="white-space: pre;" direction="ltr" dominant-baseline="text-before-edge">F</text></g><g transform="translate(272.0964485343546 266.8678342704053) rotate(0 1.7099990844726562 7.887452316268025)"><text x="0" y="0" font-family="Virgil, Segoe UI Emoji" font-size="12.61992370602884px" fill="#000000" text-anchor="start" style="white-space: pre;" direction="ltr" dominant-baseline="text-before-edge">1</text></g><g transform="translate(506.8864494498819 245.14273890294135) rotate(0 5.739997863769531 12.5)"><text x="0" y="0" font-family="Virgil, Segoe UI Emoji" font-size="20px" fill="#000000" text-anchor="start" style="white-space: pre;" direction="ltr" dominant-baseline="text-before-edge">F</text></g><g transform="translate(515.8864494498819 264.3678342704053) rotate(0 4.488975524902344 7.887452316268025)"><text x="0" y="0" font-family="Virgil, Segoe UI Emoji" font-size="12.61992370602884px" fill="#000000" text-anchor="start" style="white-space: pre;" direction="ltr" dominant-baseline="text-before-edge">2</text></g><g transform="translate(311.0964485343546 13.642738902941346) rotate(0 4.689994812011719 12.5)"><text x="0" y="0" font-family="Virgil, Segoe UI Emoji" font-size="20px" fill="#000000" text-anchor="start" style="white-space: pre;" direction="ltr" dominant-baseline="text-before-edge">y</text></g><g transform="translate(717.0964485343545 196.64273890294135) rotate(0 5.6199951171875 12.5)"><text x="0" y="0" font-family="Virgil, Segoe UI Emoji" font-size="20px" fill="#000000" text-anchor="start" style="white-space: pre;" direction="ltr" dominant-baseline="text-before-edge">x</text></g><g stroke-linecap="round"><g transform="translate(239.09644853435458 275.64273890294135) rotate(0 -69 43)"><path d="M0.83 -0.61 C-22.44 13.74, -115.84 71.56, -139.01 85.8 M-0.19 1.69 C-23.15 16.24, -113.68 73.26, -136.82 87.23" stroke="#000000" stroke-width="1" fill="none"></path></g><g transform="translate(239.09644853435458 275.64273890294135) rotate(0 -69 43)"><path d="M-119.26 61.99 C-125.18 71.79, -133.38 82.01, -137.06 86.06 M-118.67 63.89 C-121.6 68.64, -126.29 75.03, -136.21 86.25" stroke="#000000" stroke-width="1" fill="none"></path></g><g transform="translate(239.09644853435458 275.64273890294135) rotate(0 -69 43)"><path d="M-108.47 79.45 C-118.15 83.16, -130.16 87.23, -137.06 86.06 M-107.88 81.34 C-113.38 82.12, -120.57 84.47, -136.21 86.25" stroke="#000000" stroke-width="1" fill="none"></path></g></g><mask></mask><g transform="translate(27.09644853435458 371.64273890294135) rotate(0 57.64994812011719 12.5)"><text x="0" y="0" font-family="Virgil, Segoe UI Emoji" font-size="20px" fill="#000000" text-anchor="start" style="white-space: pre;" direction="ltr" dominant-baseline="text-before-edge">Brennpunkte</text></g><g stroke-linecap="round"><g transform="translate(490.0964485343546 284.64273890294135) rotate(0 -170 41.5)"><path d="M-0.14 -0.48 C-57.05 13.34, -284.35 69.12, -341.01 83.18 M-1.67 -1.78 C-58.26 12.24, -282.29 70.86, -338.83 84.82" stroke="#000000" stroke-width="1" fill="none"></path></g><g transform="translate(490.0964485343546 284.64273890294135) rotate(0 -170 41.5)"><path d="M-314.86 66.22 C-322.13 73.47, -329.41 80.36, -337.78 83 M-314.08 67.22 C-319.28 71.99, -324.43 75.97, -338.18 84.12" stroke="#000000" stroke-width="1" fill="none"></path></g><g transform="translate(490.0964485343546 284.64273890294135) rotate(0 -170 41.5)"><path d="M-309.79 86.1 C-318.82 86.6, -327.83 86.72, -337.78 83 M-309.01 87.1 C-315.41 87.32, -321.74 86.73, -338.18 84.12" stroke="#000000" stroke-width="1" fill="none"></path></g></g><mask></mask><g transform="translate(356.0964485343546 243.64273890294135) rotate(0 71.5 6.5)" stroke="none"><path fill="#000000" d="M 1.27,-0.31 Q 1.27,-0.31 1.56,0.83 1.84,1.98 2.50,3.44 3.15,4.91 4.35,5.99 5.56,7.08 7.10,8.46 8.64,9.85 9.79,10.58 10.95,11.30 12.21,11.44 13.48,11.57 15.78,11.62 18.08,11.66 19.21,11.67 20.33,11.67 21.67,11.68 23.01,11.68 24.16,11.68 25.30,11.68 26.94,11.68 28.58,11.68 29.85,11.68 31.12,11.68 32.23,11.68 33.35,11.68 34.68,11.68 36.02,11.68 37.16,11.68 38.31,11.68 40.10,11.68 41.90,11.68 43.07,11.68 44.24,11.68 45.62,10.87 47.00,10.07 47.98,9.41 48.96,8.76 49.95,8.20 50.94,7.64 51.83,6.90 52.71,6.17 53.97,5.01 55.23,3.86 56.47,2.99 57.72,2.12 59.27,2.28 60.82,2.45 61.74,3.07 62.66,3.69 63.82,4.83 64.98,5.97 66.28,7.11 67.59,8.25 68.75,9.57 69.92,10.89 70.73,11.58 71.54,12.28 72.92,12.46 74.30,12.64 75.69,12.66 77.08,12.67 78.19,12.68 79.30,12.68 80.91,11.82 82.51,10.95 83.38,9.55 84.24,8.14 85.97,7.83 87.70,7.52 88.68,8.27 89.65,9.02 90.81,9.27 91.96,9.53 93.46,10.01 94.96,10.49 96.37,10.57 97.78,10.64 98.99,10.65 100.20,10.67 101.58,10.67 102.96,10.67 104.12,10.68 105.28,10.68 106.92,10.68 108.57,10.68 110.13,10.68 111.69,10.68 113.21,10.68 114.73,10.68 115.81,10.41 116.89,10.14 118.03,10.01 119.18,9.89 121.02,8.77 122.86,7.66 124.23,7.11 125.59,6.55 127.01,6.04 128.43,5.53 130.29,4.39 132.15,3.25 133.20,2.35 134.25,1.45 135.16,0.66 136.07,-0.12 137.48,-0.61 138.90,-1.11 140.71,-1.68 142.52,-2.26 142.73,-2.25 142.95,-2.24 143.15,-2.17 143.34,-2.09 143.51,-1.95 143.67,-1.82 143.78,-1.64 143.89,-1.46 143.94,-1.25 143.99,-1.04 143.97,-0.83 143.95,-0.62 143.86,-0.43 143.77,-0.23 143.63,-0.08 143.48,0.07 143.30,0.17 143.11,0.27 142.90,0.31 142.69,0.35 142.48,0.31 142.27,0.28 142.08,0.18 141.90,0.09 141.75,-0.06 141.60,-0.21 141.51,-0.40 141.42,-0.59 141.39,-0.80 141.37,-1.01 141.41,-1.22 141.45,-1.43 141.56,-1.61 141.67,-1.80 141.83,-1.94 141.99,-2.07 142.19,-2.16 142.38,-2.24 142.59,-2.25 142.81,-2.26 143.01,-2.21 143.22,-2.15 143.39,-2.04 143.57,-1.92 143.70,-1.75 143.83,-1.58 143.90,-1.38 143.97,-1.18 143.97,-0.97 143.98,-0.76 143.91,-0.56 143.85,-0.35 143.72,-0.18 143.59,-0.01 143.42,0.10 143.24,0.22 143.04,0.28 142.83,0.34 142.83,0.34 142.84,0.34 140.72,0.96 138.61,1.59 137.56,2.18 136.51,2.78 135.86,3.75 135.20,4.72 133.36,5.44 131.52,6.16 130.45,7.07 129.38,7.97 127.98,8.48 126.57,8.99 125.35,9.48 124.12,9.97 123.13,10.51 122.13,11.05 119.81,11.87 117.49,12.70 116.12,13.00 114.75,13.31 113.22,13.31 111.69,13.31 110.13,13.31 108.56,13.31 106.92,13.31 105.27,13.31 104.11,13.30 102.95,13.30 101.56,13.30 100.17,13.29 98.94,13.28 97.70,13.27 96.11,13.17 94.52,13.08 93.03,12.60 91.55,12.12 89.78,11.59 88.01,11.06 86.70,11.00 85.38,10.94 84.67,12.02 83.96,13.10 81.66,14.20 79.35,15.30 77.58,15.30 75.80,15.29 74.42,15.25 73.04,15.20 71.69,14.91 70.35,14.62 69.08,13.75 67.81,12.88 67.16,11.98 66.50,11.09 65.51,10.27 64.51,9.45 63.68,8.67 62.84,7.89 62.30,6.86 61.76,5.82 60.54,5.11 59.32,4.40 58.18,5.09 57.03,5.77 55.70,6.98 54.38,8.20 53.30,9.06 52.23,9.93 50.51,10.96 48.79,11.99 47.80,12.82 46.81,13.65 45.54,13.98 44.27,14.31 43.09,14.31 41.90,14.31 40.10,14.31 38.31,14.31 37.16,14.31 36.02,14.31 34.68,14.31 33.35,14.31 32.23,14.31 31.12,14.31 29.85,14.31 28.57,14.31 26.94,14.31 25.30,14.31 24.15,14.31 23.01,14.30 21.66,14.30 20.32,14.30 19.19,14.29 18.05,14.29 16.74,14.27 15.42,14.26 14.36,14.22 13.30,14.19 11.34,13.80 9.38,13.41 8.12,12.59 6.85,11.77 5.45,10.50 4.04,9.22 2.51,7.81 0.99,6.41 0.14,4.51 -0.69,2.61 -0.98,1.46 -1.27,0.31 -1.29,0.16 -1.31,0.00 -1.29,-0.15 -1.27,-0.31 -1.22,-0.45 -1.16,-0.60 -1.07,-0.73 -0.98,-0.86 -0.86,-0.97 -0.74,-1.07 -0.60,-1.15 -0.46,-1.22 -0.31,-1.26 -0.16,-1.30 -0.00,-1.30 0.15,-1.30 0.30,-1.26 0.46,-1.22 0.60,-1.15 0.74,-1.08 0.86,-0.97 0.98,-0.87 1.07,-0.74 1.16,-0.61 1.21,-0.46 1.27,-0.31 1.27,-0.31 L 1.27,-0.31 Z"></path></g><g transform="translate(423.0964485343546 254.64273890294135) rotate(0 5.469993591308594 12.5)"><text x="0" y="0" font-family="Virgil, Segoe UI Emoji" font-size="20px" fill="#000000" text-anchor="start" style="white-space: pre;" direction="ltr" dominant-baseline="text-before-edge">e</text></g></svg>