<svg version="1.1" xmlns="http://www.w3.org/2000/svg" viewBox="0 0 969.2276316938876 478.3237201607227" width="969.2276316938876" height="478.3237201607227" filter="invert(93%) hue-rotate(180deg)">
  <!-- svg-source:excalidraw -->
  
  <defs>
    <style class="style-fonts">
      @font-face {
        font-family: "Virgil";
        src: url("https://unpkg.com/@excalidraw/excalidraw@0.15.3/dist/excalidraw-assets/Virgil.woff2");
      }
      @font-face {
        font-family: "Cascadia";
        src: url("https://unpkg.com/@excalidraw/excalidraw@0.15.3/dist/excalidraw-assets/Cascadia.woff2");
      }
    </style>
  </defs>
  <rect x="0" y="0" width="969.2276316938876" height="478.3237201607227" fill="#ffffff"></rect><g stroke-linecap="round"><g transform="translate(483.2276316938876 466.71467632438987) rotate(0 0.5 -228)"><path d="M0 -0.66 C-0.16 -76.33, -0.29 -379.16, 0.07 -455.08 M-1.46 1.61 C-1.34 -74.29, 1.72 -380.63, 2.3 -456.71" stroke="#000000" stroke-width="1" fill="none"></path></g><g transform="translate(483.2276316938876 466.71467632438987) rotate(0 0.5 -228)"><path d="M11.21 -429.98 C10.21 -437.45, 4.56 -451.03, 0.44 -456.64 M11.85 -429.37 C10.87 -434.69, 7.9 -441.14, 2.21 -455.75" stroke="#000000" stroke-width="1" fill="none"></path></g><g transform="translate(483.2276316938876 466.71467632438987) rotate(0 0.5 -228)"><path d="M-9.31 -430.16 C-2.35 -437.56, -0.05 -451.07, 0.44 -456.64 M-8.67 -429.55 C-5.08 -434.84, -3.47 -441.24, 2.21 -455.75" stroke="#000000" stroke-width="1" fill="none"></path></g></g><mask></mask><g stroke-linecap="round"><g transform="translate(28.227631693887645 243.71467632438987) rotate(0 464.5 -1)"><path d="M-0.6 0.95 C154.25 0.54, 773.88 -1.11, 928.62 -1.68 M1.29 0.4 C155.99 -0.46, 772.67 -3.33, 927.48 -3.63" stroke="#000000" stroke-width="1" fill="none"></path></g><g transform="translate(28.227631693887645 243.71467632438987) rotate(0 464.5 -1)"><path d="M900.9 6.1 C907.16 2.24, 913.17 1.62, 928.32 -3.35 M899.91 7.62 C910.41 1.95, 921.38 -0.72, 927.8 -2.88" stroke="#000000" stroke-width="1" fill="none"></path></g><g transform="translate(28.227631693887645 243.71467632438987) rotate(0 464.5 -1)"><path d="M900.83 -14.42 C907.24 -12.91, 913.27 -8.17, 928.32 -3.35 M899.83 -12.9 C910.26 -10.58, 921.26 -5.26, 927.8 -2.88" stroke="#000000" stroke-width="1" fill="none"></path></g></g><mask></mask><g stroke-linecap="round" transform="translate(196.2276316938876 99.71467632438987) rotate(0 288 143.5)"><path d="M0.27 -0.52 C184.55 1.42, 368.63 2.04, 575.94 0.17 M0.18 -0.31 C165.25 1.52, 329.57 1.68, 575.8 0.03 M575.85 0.73 C578.25 83.22, 576.44 164.55, 576.95 287.78 M575.71 -0.37 C577.25 102.52, 578.05 204.98, 576.3 287.3 M576.41 286.34 C427.88 286.38, 280.72 285.87, 0.25 287.59 M576.34 286.99 C386.53 288.28, 196.82 287.94, -0.25 287.32 M-0.28 288.14 C-1.45 227.34, -1.06 169.86, 1.25 0.68 M-0.31 286.51 C-1.96 175.21, -1.97 62.23, -0.7 0.48" stroke="#000000" stroke-width="1" fill="none"></path></g><g stroke-linecap="round"><g transform="translate(83.22763169385212 443.7117658018973) rotate(0 402.50000000001774 -200.99854473875374)"><path d="M-0.29 0.51 C133.87 -66.33, 670.82 -334.14, 804.98 -401.06 M1.75 -0.26 C135.75 -67.43, 670.37 -335.6, 804.03 -402.69" stroke="#000000" stroke-width="1" fill="none"></path></g></g><mask></mask><g stroke-linecap="round"><g transform="translate(88.22763169388759 45.71467632438987) rotate(0 394.9999999929143 196.00036161577106)"><path d="M-0.91 0.63 C130.49 65.72, 656.97 325.91, 788.91 391.03 M0.81 -0.08 C132.52 65.08, 659.47 326.65, 791.06 392.06" stroke="#000000" stroke-width="1" fill="none"></path></g></g><mask></mask><g transform="translate(955.2276316938876 469.71467632438987) rotate(0 -89 -224)" stroke="none"><path fill="#0b7285" d="M -6.25,-26.81 Q -6.25,-26.81 -7.37,-27.35 -8.48,-27.89 -10.84,-28.82 -13.20,-29.76 -14.63,-30.56 -16.06,-31.36 -18.00,-32.48 -19.94,-33.60 -21.62,-34.62 -23.29,-35.64 -25.38,-36.87 -27.47,-38.10 -28.90,-38.89 -30.33,-39.67 -32.35,-40.82 -34.36,-41.97 -35.83,-43.03 -37.30,-44.09 -39.50,-45.28 -41.71,-46.48 -43.77,-47.53 -45.83,-48.59 -48.72,-50.41 -51.60,-52.23 -53.64,-53.53 -55.69,-54.83 -57.68,-56.20 -59.68,-57.57 -61.35,-58.68 -63.02,-59.79 -64.86,-61.08 -66.70,-62.36 -68.07,-63.47 -69.43,-64.57 -70.97,-65.21 -72.50,-65.85 -74.10,-66.72 -75.71,-67.59 -77.23,-68.50 -78.74,-69.41 -79.91,-70.05 -81.08,-70.68 -82.59,-71.18 -84.11,-71.68 -85.96,-72.47 -87.81,-73.25 -89.15,-73.85 -90.48,-74.45 -91.94,-75.27 -93.39,-76.08 -95.07,-76.94 -96.75,-77.80 -98.03,-78.44 -99.31,-79.08 -100.51,-79.94 -101.70,-80.81 -102.99,-81.68 -104.28,-82.54 -105.22,-83.55 -106.17,-84.56 -107.28,-85.41 -108.39,-86.26 -109.48,-87.21 -110.57,-88.17 -111.39,-89.19 -112.20,-90.21 -113.03,-91.10 -113.86,-91.99 -114.83,-93.24 -115.79,-94.48 -116.50,-95.58 -117.20,-96.67 -117.99,-97.58 -118.78,-98.49 -119.85,-100.01 -120.91,-101.52 -121.98,-102.63 -123.05,-103.75 -124.68,-104.95 -126.31,-106.15 -128.03,-107.49 -129.76,-108.83 -131.36,-109.93 -132.95,-111.04 -133.76,-111.93 -134.56,-112.82 -135.37,-113.65 -136.18,-114.48 -136.87,-115.46 -137.57,-116.44 -138.40,-117.63 -139.23,-118.82 -139.88,-119.90 -140.53,-120.98 -141.09,-121.97 -141.65,-122.97 -142.41,-124.16 -143.18,-125.34 -144.07,-126.66 -144.95,-127.97 -145.63,-129.10 -146.31,-130.23 -147.38,-131.81 -148.45,-133.39 -149.63,-134.71 -150.81,-136.03 -152.01,-137.51 -153.20,-138.99 -154.39,-139.91 -155.58,-140.82 -156.56,-141.85 -157.54,-142.88 -158.70,-144.85 -159.86,-146.82 -160.59,-148.87 -161.33,-150.92 -161.99,-152.92 -162.66,-154.91 -163.43,-157.06 -164.19,-159.20 -164.40,-160.36 -164.61,-161.52 -165.18,-162.60 -165.76,-163.68 -166.44,-165.39 -167.11,-167.10 -167.65,-168.88 -168.20,-170.66 -168.44,-172.10 -168.68,-173.53 -169.63,-175.03 -170.59,-176.52 -171.43,-178.13 -172.26,-179.74 -172.83,-181.60 -173.40,-183.46 -174.26,-185.23 -175.12,-186.99 -175.90,-188.26 -176.68,-189.52 -177.65,-191.64 -178.63,-193.77 -179.22,-195.71 -179.80,-197.65 -180.24,-199.23 -180.68,-200.81 -180.97,-202.79 -181.25,-204.77 -181.30,-206.30 -181.35,-207.83 -181.36,-208.98 -181.37,-210.14 -181.37,-211.38 -181.37,-212.62 -181.37,-214.11 -181.37,-215.60 -181.61,-216.67 -181.85,-217.75 -182.25,-218.89 -182.65,-220.03 -182.84,-221.15 -183.04,-222.28 -183.12,-223.58 -183.20,-224.89 -183.23,-225.97 -183.26,-227.05 -183.28,-228.32 -183.29,-229.59 -183.29,-230.66 -183.30,-231.74 -183.30,-233.00 -183.30,-234.26 -183.31,-235.34 -183.31,-236.41 -183.31,-237.67 -183.31,-238.93 -183.31,-240.88 -183.31,-242.83 -183.31,-244.18 -183.31,-245.52 -183.31,-247.28 -183.31,-249.03 -183.31,-250.16 -183.30,-251.30 -182.91,-253.48 -182.51,-255.66 -182.16,-256.91 -181.81,-258.16 -181.69,-259.33 -181.57,-260.51 -181.49,-262.41 -181.41,-264.32 -180.78,-266.85 -180.15,-269.37 -179.62,-270.45 -179.10,-271.53 -178.62,-272.74 -178.14,-273.95 -177.58,-276.23 -177.02,-278.51 -176.10,-280.52 -175.18,-282.53 -174.53,-284.05 -173.88,-285.57 -173.18,-286.90 -172.47,-288.23 -171.12,-290.40 -169.78,-292.57 -168.76,-294.84 -167.74,-297.11 -167.13,-298.06 -166.51,-299.01 -166.04,-300.10 -165.56,-301.18 -165.05,-302.24 -164.54,-303.30 -163.74,-304.60 -162.94,-305.91 -162.39,-307.40 -161.84,-308.89 -161.29,-310.14 -160.74,-311.39 -160.22,-312.46 -159.71,-313.54 -158.91,-314.85 -158.10,-316.16 -157.40,-318.14 -156.69,-320.12 -155.58,-321.50 -154.48,-322.88 -153.83,-324.11 -153.19,-325.34 -151.94,-326.59 -150.68,-327.84 -149.99,-328.77 -149.29,-329.70 -147.81,-331.26 -146.32,-332.82 -145.48,-333.94 -144.64,-335.05 -143.45,-336.86 -142.26,-338.66 -141.18,-340.26 -140.11,-341.85 -138.76,-343.40 -137.42,-344.94 -136.24,-345.91 -135.05,-346.89 -133.82,-348.27 -132.59,-349.66 -131.40,-350.62 -130.21,-351.58 -128.93,-352.73 -127.65,-353.89 -126.47,-354.71 -125.29,-355.54 -123.98,-356.40 -122.66,-357.27 -121.94,-358.08 -121.22,-358.88 -119.69,-360.14 -118.15,-361.39 -116.91,-362.20 -115.68,-363.02 -114.08,-364.14 -112.48,-365.26 -110.95,-366.29 -109.41,-367.31 -107.66,-368.54 -105.91,-369.77 -104.25,-370.62 -102.58,-371.46 -100.54,-372.59 -98.50,-373.72 -97.38,-374.45 -96.26,-375.18 -94.85,-375.82 -93.43,-376.46 -92.42,-377.18 -91.40,-377.91 -89.99,-378.57 -88.58,-379.23 -87.47,-379.75 -86.36,-380.27 -85.45,-380.96 -84.53,-381.65 -83.33,-382.78 -82.13,-383.90 -81.20,-384.43 -80.27,-384.95 -79.00,-385.46 -77.73,-385.96 -75.69,-387.04 -73.65,-388.13 -72.77,-388.72 -71.88,-389.31 -70.84,-389.89 -69.80,-390.46 -68.90,-391.18 -68.00,-391.89 -66.17,-392.49 -64.33,-393.08 -63.40,-393.70 -62.48,-394.32 -60.88,-394.69 -59.27,-395.06 -58.00,-395.67 -56.73,-396.27 -55.41,-396.60 -54.09,-396.92 -52.98,-396.96 -51.87,-396.99 -50.51,-397.61 -49.15,-398.22 -47.65,-398.73 -46.15,-399.25 -44.69,-399.72 -43.23,-400.20 -41.58,-400.44 -39.93,-400.68 -38.65,-400.95 -37.36,-401.22 -36.38,-401.94 -35.40,-402.65 -33.86,-403.42 -32.33,-404.19 -30.68,-404.70 -29.03,-405.21 -27.55,-405.30 -26.06,-405.39 -24.32,-405.81 -22.57,-406.23 -21.61,-406.88 -20.65,-407.54 -19.69,-408.01 -18.74,-408.47 -17.20,-408.77 -15.66,-409.07 -14.61,-409.48 -13.55,-409.89 -12.34,-410.48 -11.14,-411.06 -10.04,-411.82 -8.93,-412.58 -7.60,-413.24 -6.27,-413.90 -5.30,-415.16 -4.33,-416.41 -2.75,-417.28 -1.16,-418.14 -0.11,-418.65 0.92,-419.16 2.06,-420.12 3.20,-421.07 3.41,-421.13 3.61,-421.19 3.82,-421.18 4.03,-421.17 4.23,-421.09 4.43,-421.02 4.59,-420.88 4.76,-420.74 4.87,-420.56 4.98,-420.38 5.03,-420.18 5.07,-419.97 5.05,-419.76 5.03,-419.55 4.95,-419.35 4.86,-419.16 4.71,-419.00 4.57,-418.85 4.38,-418.75 4.19,-418.64 3.99,-418.61 3.78,-418.57 3.57,-418.60 3.36,-418.64 3.17,-418.74 2.98,-418.83 2.83,-418.99 2.68,-419.14 2.59,-419.33 2.50,-419.52 2.48,-419.73 2.45,-419.95 2.50,-420.15 2.54,-420.36 2.65,-420.54 2.76,-420.73 2.92,-420.87 3.08,-421.00 3.27,-421.09 3.47,-421.17 3.68,-421.18 3.89,-421.19 4.10,-421.14 4.31,-421.08 4.48,-420.96 4.66,-420.85 4.79,-420.68 4.92,-420.51 4.99,-420.31 5.06,-420.11 5.06,-419.90 5.06,-419.68 5.00,-419.48 4.93,-419.28 4.80,-419.11 4.68,-418.94 4.50,-418.82 4.33,-418.70 4.33,-418.70 4.33,-418.70 3.02,-417.68 1.71,-416.66 0.70,-416.16 -0.30,-415.66 -1.30,-415.21 -2.31,-414.75 -2.94,-413.78 -3.57,-412.81 -4.67,-411.88 -5.77,-410.95 -7.37,-410.55 -8.96,-410.15 -9.77,-409.16 -10.59,-408.17 -11.77,-407.75 -12.96,-407.33 -14.18,-406.90 -15.39,-406.47 -16.99,-405.97 -18.59,-405.47 -19.72,-405.02 -20.85,-404.56 -22.21,-404.08 -23.57,-403.61 -24.71,-403.20 -25.85,-402.80 -27.47,-402.66 -29.09,-402.53 -30.39,-402.08 -31.70,-401.64 -32.73,-401.11 -33.77,-400.59 -35.14,-399.67 -36.50,-398.74 -38.12,-398.40 -39.74,-398.06 -41.00,-397.91 -42.26,-397.75 -43.72,-397.28 -45.17,-396.81 -46.63,-396.32 -48.08,-395.82 -49.91,-395.10 -51.74,-394.38 -53.15,-394.30 -54.57,-394.22 -55.75,-393.67 -56.94,-393.11 -58.95,-392.65 -60.95,-392.19 -62.41,-391.35 -63.87,-390.50 -65.13,-390.16 -66.40,-389.82 -67.46,-388.99 -68.53,-388.16 -69.50,-387.63 -70.48,-387.10 -72.64,-386.17 -74.80,-385.24 -75.75,-384.40 -76.71,-383.55 -78.66,-382.65 -80.62,-381.75 -81.78,-380.66 -82.95,-379.56 -84.09,-378.73 -85.24,-377.90 -86.36,-377.37 -87.48,-376.84 -88.69,-376.30 -89.90,-375.75 -91.13,-374.91 -92.36,-374.06 -93.60,-373.52 -94.83,-372.98 -96.03,-372.20 -97.23,-371.42 -99.31,-370.27 -101.40,-369.11 -102.91,-368.37 -104.41,-367.62 -106.18,-366.38 -107.95,-365.13 -109.46,-364.12 -110.97,-363.11 -112.61,-361.96 -114.24,-360.82 -115.37,-360.08 -116.50,-359.35 -117.90,-358.22 -119.30,-357.10 -120.25,-356.10 -121.20,-355.09 -122.50,-354.24 -123.80,-353.38 -124.85,-352.66 -125.89,-351.94 -127.23,-350.73 -128.57,-349.52 -129.60,-348.71 -130.64,-347.90 -132.02,-346.37 -133.39,-344.85 -134.42,-344.03 -135.45,-343.21 -136.69,-341.79 -137.93,-340.38 -139.00,-338.80 -140.07,-337.22 -141.31,-335.34 -142.54,-333.47 -143.48,-332.23 -144.42,-331.00 -145.81,-329.56 -147.20,-328.12 -148.03,-327.04 -148.85,-325.96 -149.88,-325.01 -150.90,-324.07 -151.67,-322.64 -152.45,-321.22 -153.76,-319.22 -155.07,-317.23 -155.46,-316.01 -155.86,-314.80 -156.60,-313.60 -157.34,-312.40 -157.84,-311.37 -158.34,-310.33 -158.86,-309.15 -159.38,-307.96 -160.04,-306.25 -160.70,-304.53 -161.44,-303.34 -162.18,-302.16 -162.67,-301.14 -163.16,-300.12 -164.27,-298.04 -165.38,-295.96 -166.44,-293.62 -167.49,-291.28 -168.83,-289.12 -170.17,-286.97 -170.75,-285.96 -171.33,-284.95 -172.04,-283.24 -172.75,-281.54 -173.62,-279.65 -174.50,-277.76 -174.85,-276.56 -175.21,-275.36 -175.45,-274.17 -175.70,-272.99 -176.22,-271.69 -176.73,-270.38 -177.24,-269.33 -177.75,-268.29 -178.27,-266.28 -178.78,-264.26 -178.87,-262.24 -178.96,-260.22 -179.43,-257.82 -179.89,-255.42 -180.29,-253.33 -180.69,-251.24 -180.68,-250.13 -180.68,-249.03 -180.68,-247.28 -180.68,-245.52 -180.68,-244.18 -180.68,-242.83 -180.68,-240.88 -180.68,-238.93 -180.68,-237.67 -180.68,-236.41 -180.68,-235.34 -180.68,-234.27 -180.68,-233.01 -180.67,-231.75 -180.67,-230.68 -180.66,-229.62 -180.62,-227.33 -180.58,-225.04 -180.37,-222.97 -180.17,-220.89 -179.77,-219.77 -179.38,-218.65 -179.06,-217.12 -178.74,-215.60 -178.74,-214.11 -178.74,-212.63 -178.74,-211.39 -178.74,-210.15 -178.73,-209.01 -178.72,-207.87 -178.68,-206.43 -178.63,-204.99 -178.39,-203.26 -178.15,-201.52 -177.73,-199.99 -177.30,-198.46 -176.75,-196.60 -176.20,-194.75 -175.75,-193.64 -175.30,-192.53 -174.42,-190.92 -173.55,-189.31 -173.00,-188.05 -172.46,-186.80 -171.75,-186.01 -171.03,-185.22 -170.88,-184.05 -170.72,-182.88 -170.10,-181.27 -169.49,-179.66 -168.50,-178.33 -167.51,-177.00 -166.79,-175.41 -166.06,-173.82 -165.88,-172.65 -165.70,-171.47 -165.21,-169.82 -164.71,-168.17 -164.06,-166.51 -163.41,-164.86 -162.56,-162.46 -161.71,-160.06 -161.28,-158.83 -160.85,-157.60 -160.46,-156.48 -160.07,-155.35 -159.46,-153.58 -158.85,-151.80 -158.20,-149.93 -157.55,-148.05 -156.75,-146.50 -155.95,-144.95 -154.88,-143.85 -153.82,-142.76 -152.45,-141.64 -151.08,-140.51 -149.99,-139.18 -148.91,-137.85 -147.56,-136.30 -146.20,-134.76 -145.13,-133.17 -144.05,-131.58 -143.41,-130.51 -142.77,-129.44 -141.87,-128.10 -140.98,-126.77 -140.16,-125.51 -139.35,-124.25 -138.82,-123.29 -138.28,-122.33 -137.68,-121.33 -137.07,-120.32 -135.68,-118.31 -134.29,-116.30 -132.93,-114.79 -131.57,-113.27 -129.91,-112.12 -128.25,-110.97 -126.43,-109.57 -124.62,-108.16 -123.80,-107.47 -122.98,-106.77 -122.09,-106.19 -121.20,-105.60 -120.06,-104.41 -118.92,-103.23 -117.85,-101.71 -116.78,-100.19 -115.89,-99.14 -114.99,-98.09 -114.35,-97.09 -113.71,-96.09 -112.82,-94.93 -111.94,-93.78 -111.04,-92.80 -110.13,-91.83 -109.49,-90.98 -108.84,-90.14 -107.81,-89.24 -106.77,-88.33 -105.50,-87.34 -104.23,-86.34 -103.51,-85.52 -102.79,-84.71 -101.47,-83.82 -100.15,-82.93 -99.14,-82.18 -98.14,-81.42 -96.85,-80.78 -95.56,-80.14 -93.83,-79.26 -92.10,-78.37 -90.75,-77.61 -89.41,-76.85 -88.10,-76.26 -86.78,-75.67 -85.03,-74.92 -83.27,-74.17 -81.55,-73.58 -79.83,-72.99 -78.61,-72.33 -77.39,-71.66 -75.92,-70.78 -74.45,-69.90 -72.95,-69.08 -71.46,-68.26 -69.63,-67.44 -67.80,-66.63 -66.50,-65.57 -65.20,-64.51 -63.38,-63.25 -61.57,-61.98 -59.88,-60.86 -58.20,-59.74 -56.24,-58.39 -54.27,-57.05 -52.24,-55.75 -50.20,-54.45 -47.42,-52.69 -44.64,-50.93 -42.54,-49.85 -40.45,-48.78 -38.11,-47.50 -35.77,-46.21 -34.41,-45.23 -33.06,-44.25 -31.07,-43.11 -29.07,-41.97 -27.60,-41.17 -26.13,-40.37 -24.03,-39.13 -21.92,-37.89 -20.27,-36.88 -18.63,-35.88 -16.69,-34.76 -14.75,-33.64 -13.61,-32.96 -12.48,-32.28 -9.91,-31.27 -7.34,-30.25 -6.23,-29.71 -5.11,-29.18 -4.98,-29.09 -4.85,-29.01 -4.74,-28.89 -4.63,-28.78 -4.55,-28.64 -4.47,-28.50 -4.43,-28.35 -4.38,-28.20 -4.38,-28.04 -4.37,-27.88 -4.41,-27.73 -4.44,-27.57 -4.51,-27.43 -4.58,-27.29 -4.68,-27.16 -4.78,-27.04 -4.91,-26.95 -5.03,-26.85 -5.18,-26.79 -5.32,-26.73 -5.48,-26.71 -5.64,-26.68 -5.80,-26.70 -5.95,-26.71 -6.10,-26.76 -6.25,-26.81 -6.25,-26.81 L -6.25,-26.81 Z"></path></g><g transform="translate(191.22763169388753 464.71467632438987) rotate(179.774427230366 -89.00000000000001 -224)" stroke="none"><path fill="#0b7285" d="M -6.25,-26.81 Q -6.25,-26.81 -7.37,-27.35 -8.48,-27.89 -10.84,-28.82 -13.20,-29.76 -14.63,-30.56 -16.06,-31.36 -18.00,-32.48 -19.94,-33.60 -21.62,-34.62 -23.29,-35.64 -25.38,-36.87 -27.47,-38.10 -28.90,-38.89 -30.33,-39.67 -32.35,-40.82 -34.36,-41.97 -35.83,-43.03 -37.30,-44.09 -39.50,-45.28 -41.71,-46.48 -43.77,-47.53 -45.83,-48.59 -48.72,-50.41 -51.60,-52.23 -53.64,-53.53 -55.69,-54.83 -57.68,-56.20 -59.68,-57.57 -61.35,-58.68 -63.02,-59.79 -64.86,-61.08 -66.70,-62.36 -68.07,-63.47 -69.43,-64.57 -70.97,-65.21 -72.50,-65.85 -74.10,-66.72 -75.71,-67.59 -77.23,-68.50 -78.74,-69.41 -79.91,-70.05 -81.08,-70.68 -82.59,-71.18 -84.11,-71.68 -85.96,-72.47 -87.81,-73.25 -89.15,-73.85 -90.48,-74.45 -91.94,-75.27 -93.39,-76.08 -95.07,-76.94 -96.75,-77.80 -98.03,-78.44 -99.31,-79.08 -100.51,-79.94 -101.70,-80.81 -102.99,-81.68 -104.28,-82.54 -105.22,-83.55 -106.17,-84.56 -107.28,-85.41 -108.39,-86.26 -109.48,-87.21 -110.57,-88.17 -111.39,-89.19 -112.20,-90.21 -113.03,-91.10 -113.86,-91.99 -114.83,-93.24 -115.79,-94.48 -116.50,-95.58 -117.20,-96.67 -117.99,-97.58 -118.78,-98.49 -119.85,-100.01 -120.91,-101.52 -121.98,-102.63 -123.05,-103.75 -124.68,-104.95 -126.31,-106.15 -128.03,-107.49 -129.76,-108.83 -131.36,-109.93 -132.95,-111.04 -133.76,-111.93 -134.56,-112.82 -135.37,-113.65 -136.18,-114.48 -136.87,-115.46 -137.57,-116.44 -138.40,-117.63 -139.23,-118.82 -139.88,-119.90 -140.53,-120.98 -141.09,-121.97 -141.65,-122.97 -142.41,-124.16 -143.18,-125.34 -144.07,-126.66 -144.95,-127.97 -145.63,-129.10 -146.31,-130.23 -147.38,-131.81 -148.45,-133.39 -149.63,-134.71 -150.81,-136.03 -152.01,-137.51 -153.20,-138.99 -154.39,-139.91 -155.58,-140.82 -156.56,-141.85 -157.54,-142.88 -158.70,-144.85 -159.86,-146.82 -160.59,-148.87 -161.33,-150.92 -161.99,-152.92 -162.66,-154.91 -163.43,-157.06 -164.19,-159.20 -164.40,-160.36 -164.61,-161.52 -165.18,-162.60 -165.76,-163.68 -166.44,-165.39 -167.11,-167.10 -167.65,-168.88 -168.20,-170.66 -168.44,-172.10 -168.68,-173.53 -169.63,-175.03 -170.59,-176.52 -171.43,-178.13 -172.26,-179.74 -172.83,-181.60 -173.40,-183.46 -174.26,-185.23 -175.12,-186.99 -175.90,-188.26 -176.68,-189.52 -177.65,-191.64 -178.63,-193.77 -179.22,-195.71 -179.80,-197.65 -180.24,-199.23 -180.68,-200.81 -180.97,-202.79 -181.25,-204.77 -181.30,-206.30 -181.35,-207.83 -181.36,-208.98 -181.37,-210.14 -181.37,-211.38 -181.37,-212.62 -181.37,-214.11 -181.37,-215.60 -181.61,-216.67 -181.85,-217.75 -182.25,-218.89 -182.65,-220.03 -182.84,-221.15 -183.04,-222.28 -183.12,-223.58 -183.20,-224.89 -183.23,-225.97 -183.26,-227.05 -183.28,-228.32 -183.29,-229.59 -183.29,-230.66 -183.30,-231.74 -183.30,-233.00 -183.30,-234.26 -183.31,-235.34 -183.31,-236.41 -183.31,-237.67 -183.31,-238.93 -183.31,-240.88 -183.31,-242.83 -183.31,-244.18 -183.31,-245.52 -183.31,-247.28 -183.31,-249.03 -183.31,-250.16 -183.30,-251.30 -182.91,-253.48 -182.51,-255.66 -182.16,-256.91 -181.81,-258.16 -181.69,-259.33 -181.57,-260.51 -181.49,-262.41 -181.41,-264.32 -180.78,-266.85 -180.15,-269.37 -179.62,-270.45 -179.10,-271.53 -178.62,-272.74 -178.14,-273.95 -177.58,-276.23 -177.02,-278.51 -176.10,-280.52 -175.18,-282.53 -174.53,-284.05 -173.88,-285.57 -173.18,-286.90 -172.47,-288.23 -171.12,-290.40 -169.78,-292.57 -168.76,-294.84 -167.74,-297.11 -167.13,-298.06 -166.51,-299.01 -166.04,-300.10 -165.56,-301.18 -165.05,-302.24 -164.54,-303.30 -163.74,-304.60 -162.94,-305.91 -162.39,-307.40 -161.84,-308.89 -161.29,-310.14 -160.74,-311.39 -160.22,-312.46 -159.71,-313.54 -158.91,-314.85 -158.10,-316.16 -157.40,-318.14 -156.69,-320.12 -155.58,-321.50 -154.48,-322.88 -153.83,-324.11 -153.19,-325.34 -151.94,-326.59 -150.68,-327.84 -149.99,-328.77 -149.29,-329.70 -147.81,-331.26 -146.32,-332.82 -145.48,-333.94 -144.64,-335.05 -143.45,-336.86 -142.26,-338.66 -141.18,-340.26 -140.11,-341.85 -138.76,-343.40 -137.42,-344.94 -136.24,-345.91 -135.05,-346.89 -133.82,-348.27 -132.59,-349.66 -131.40,-350.62 -130.21,-351.58 -128.93,-352.73 -127.65,-353.89 -126.47,-354.71 -125.29,-355.54 -123.98,-356.40 -122.66,-357.27 -121.94,-358.08 -121.22,-358.88 -119.69,-360.14 -118.15,-361.39 -116.91,-362.20 -115.68,-363.02 -114.08,-364.14 -112.48,-365.26 -110.95,-366.29 -109.41,-367.31 -107.66,-368.54 -105.91,-369.77 -104.25,-370.62 -102.58,-371.46 -100.54,-372.59 -98.50,-373.72 -97.38,-374.45 -96.26,-375.18 -94.85,-375.82 -93.43,-376.46 -92.42,-377.18 -91.40,-377.91 -89.99,-378.57 -88.58,-379.23 -87.47,-379.75 -86.36,-380.27 -85.45,-380.96 -84.53,-381.65 -83.33,-382.78 -82.13,-383.90 -81.20,-384.43 -80.27,-384.95 -79.00,-385.46 -77.73,-385.96 -75.69,-387.04 -73.65,-388.13 -72.77,-388.72 -71.88,-389.31 -70.84,-389.89 -69.80,-390.46 -68.90,-391.18 -68.00,-391.89 -66.17,-392.49 -64.33,-393.08 -63.40,-393.70 -62.48,-394.32 -60.88,-394.69 -59.27,-395.06 -58.00,-395.67 -56.73,-396.27 -55.41,-396.60 -54.09,-396.92 -52.98,-396.96 -51.87,-396.99 -50.51,-397.61 -49.15,-398.22 -47.65,-398.73 -46.15,-399.25 -44.69,-399.72 -43.23,-400.20 -41.58,-400.44 -39.93,-400.68 -38.65,-400.95 -37.36,-401.22 -36.38,-401.94 -35.40,-402.65 -33.86,-403.42 -32.33,-404.19 -30.68,-404.70 -29.03,-405.21 -27.55,-405.30 -26.06,-405.39 -24.32,-405.81 -22.57,-406.23 -21.61,-406.88 -20.65,-407.54 -19.69,-408.01 -18.74,-408.47 -17.20,-408.77 -15.66,-409.07 -14.61,-409.48 -13.55,-409.89 -12.34,-410.48 -11.14,-411.06 -10.04,-411.82 -8.93,-412.58 -7.60,-413.24 -6.27,-413.90 -5.30,-415.16 -4.33,-416.41 -2.75,-417.28 -1.16,-418.14 -0.11,-418.65 0.92,-419.16 2.06,-420.12 3.20,-421.07 3.41,-421.13 3.61,-421.19 3.82,-421.18 4.03,-421.17 4.23,-421.09 4.43,-421.02 4.59,-420.88 4.76,-420.74 4.87,-420.56 4.98,-420.38 5.03,-420.18 5.07,-419.97 5.05,-419.76 5.03,-419.55 4.95,-419.35 4.86,-419.16 4.71,-419.00 4.57,-418.85 4.38,-418.75 4.19,-418.64 3.99,-418.61 3.78,-418.57 3.57,-418.60 3.36,-418.64 3.17,-418.74 2.98,-418.83 2.83,-418.99 2.68,-419.14 2.59,-419.33 2.50,-419.52 2.48,-419.73 2.45,-419.95 2.50,-420.15 2.54,-420.36 2.65,-420.54 2.76,-420.73 2.92,-420.87 3.08,-421.00 3.27,-421.09 3.47,-421.17 3.68,-421.18 3.89,-421.19 4.10,-421.14 4.31,-421.08 4.48,-420.96 4.66,-420.85 4.79,-420.68 4.92,-420.51 4.99,-420.31 5.06,-420.11 5.06,-419.90 5.06,-419.68 5.00,-419.48 4.93,-419.28 4.80,-419.11 4.68,-418.94 4.50,-418.82 4.33,-418.70 4.33,-418.70 4.33,-418.70 3.02,-417.68 1.71,-416.66 0.70,-416.16 -0.30,-415.66 -1.30,-415.21 -2.31,-414.75 -2.94,-413.78 -3.57,-412.81 -4.67,-411.88 -5.77,-410.95 -7.37,-410.55 -8.96,-410.15 -9.77,-409.16 -10.59,-408.17 -11.77,-407.75 -12.96,-407.33 -14.18,-406.90 -15.39,-406.47 -16.99,-405.97 -18.59,-405.47 -19.72,-405.02 -20.85,-404.56 -22.21,-404.08 -23.57,-403.61 -24.71,-403.20 -25.85,-402.80 -27.47,-402.66 -29.09,-402.53 -30.39,-402.08 -31.70,-401.64 -32.73,-401.11 -33.77,-400.59 -35.14,-399.67 -36.50,-398.74 -38.12,-398.40 -39.74,-398.06 -41.00,-397.91 -42.26,-397.75 -43.72,-397.28 -45.17,-396.81 -46.63,-396.32 -48.08,-395.82 -49.91,-395.10 -51.74,-394.38 -53.15,-394.30 -54.57,-394.22 -55.75,-393.67 -56.94,-393.11 -58.95,-392.65 -60.95,-392.19 -62.41,-391.35 -63.87,-390.50 -65.13,-390.16 -66.40,-389.82 -67.46,-388.99 -68.53,-388.16 -69.50,-387.63 -70.48,-387.10 -72.64,-386.17 -74.80,-385.24 -75.75,-384.40 -76.71,-383.55 -78.66,-382.65 -80.62,-381.75 -81.78,-380.66 -82.95,-379.56 -84.09,-378.73 -85.24,-377.90 -86.36,-377.37 -87.48,-376.84 -88.69,-376.30 -89.90,-375.75 -91.13,-374.91 -92.36,-374.06 -93.60,-373.52 -94.83,-372.98 -96.03,-372.20 -97.23,-371.42 -99.31,-370.27 -101.40,-369.11 -102.91,-368.37 -104.41,-367.62 -106.18,-366.38 -107.95,-365.13 -109.46,-364.12 -110.97,-363.11 -112.61,-361.96 -114.24,-360.82 -115.37,-360.08 -116.50,-359.35 -117.90,-358.22 -119.30,-357.10 -120.25,-356.10 -121.20,-355.09 -122.50,-354.24 -123.80,-353.38 -124.85,-352.66 -125.89,-351.94 -127.23,-350.73 -128.57,-349.52 -129.60,-348.71 -130.64,-347.90 -132.02,-346.37 -133.39,-344.85 -134.42,-344.03 -135.45,-343.21 -136.69,-341.79 -137.93,-340.38 -139.00,-338.80 -140.07,-337.22 -141.31,-335.34 -142.54,-333.47 -143.48,-332.23 -144.42,-331.00 -145.81,-329.56 -147.20,-328.12 -148.03,-327.04 -148.85,-325.96 -149.88,-325.01 -150.90,-324.07 -151.67,-322.64 -152.45,-321.22 -153.76,-319.22 -155.07,-317.23 -155.46,-316.01 -155.86,-314.80 -156.60,-313.60 -157.34,-312.40 -157.84,-311.37 -158.34,-310.33 -158.86,-309.15 -159.38,-307.96 -160.04,-306.25 -160.70,-304.53 -161.44,-303.34 -162.18,-302.16 -162.67,-301.14 -163.16,-300.12 -164.27,-298.04 -165.38,-295.96 -166.44,-293.62 -167.49,-291.28 -168.83,-289.12 -170.17,-286.97 -170.75,-285.96 -171.33,-284.95 -172.04,-283.24 -172.75,-281.54 -173.62,-279.65 -174.50,-277.76 -174.85,-276.56 -175.21,-275.36 -175.45,-274.17 -175.70,-272.99 -176.22,-271.69 -176.73,-270.38 -177.24,-269.33 -177.75,-268.29 -178.27,-266.28 -178.78,-264.26 -178.87,-262.24 -178.96,-260.22 -179.43,-257.82 -179.89,-255.42 -180.29,-253.33 -180.69,-251.24 -180.68,-250.13 -180.68,-249.03 -180.68,-247.28 -180.68,-245.52 -180.68,-244.18 -180.68,-242.83 -180.68,-240.88 -180.68,-238.93 -180.68,-237.67 -180.68,-236.41 -180.68,-235.34 -180.68,-234.27 -180.68,-233.01 -180.67,-231.75 -180.67,-230.68 -180.66,-229.62 -180.62,-227.33 -180.58,-225.04 -180.37,-222.97 -180.17,-220.89 -179.77,-219.77 -179.38,-218.65 -179.06,-217.12 -178.74,-215.60 -178.74,-214.11 -178.74,-212.63 -178.74,-211.39 -178.74,-210.15 -178.73,-209.01 -178.72,-207.87 -178.68,-206.43 -178.63,-204.99 -178.39,-203.26 -178.15,-201.52 -177.73,-199.99 -177.30,-198.46 -176.75,-196.60 -176.20,-194.75 -175.75,-193.64 -175.30,-192.53 -174.42,-190.92 -173.55,-189.31 -173.00,-188.05 -172.46,-186.80 -171.75,-186.01 -171.03,-185.22 -170.88,-184.05 -170.72,-182.88 -170.10,-181.27 -169.49,-179.66 -168.50,-178.33 -167.51,-177.00 -166.79,-175.41 -166.06,-173.82 -165.88,-172.65 -165.70,-171.47 -165.21,-169.82 -164.71,-168.17 -164.06,-166.51 -163.41,-164.86 -162.56,-162.46 -161.71,-160.06 -161.28,-158.83 -160.85,-157.60 -160.46,-156.48 -160.07,-155.35 -159.46,-153.58 -158.85,-151.80 -158.20,-149.93 -157.55,-148.05 -156.75,-146.50 -155.95,-144.95 -154.88,-143.85 -153.82,-142.76 -152.45,-141.64 -151.08,-140.51 -149.99,-139.18 -148.91,-137.85 -147.56,-136.30 -146.20,-134.76 -145.13,-133.17 -144.05,-131.58 -143.41,-130.51 -142.77,-129.44 -141.87,-128.10 -140.98,-126.77 -140.16,-125.51 -139.35,-124.25 -138.82,-123.29 -138.28,-122.33 -137.68,-121.33 -137.07,-120.32 -135.68,-118.31 -134.29,-116.30 -132.93,-114.79 -131.57,-113.27 -129.91,-112.12 -128.25,-110.97 -126.43,-109.57 -124.62,-108.16 -123.80,-107.47 -122.98,-106.77 -122.09,-106.19 -121.20,-105.60 -120.06,-104.41 -118.92,-103.23 -117.85,-101.71 -116.78,-100.19 -115.89,-99.14 -114.99,-98.09 -114.35,-97.09 -113.71,-96.09 -112.82,-94.93 -111.94,-93.78 -111.04,-92.80 -110.13,-91.83 -109.49,-90.98 -108.84,-90.14 -107.81,-89.24 -106.77,-88.33 -105.50,-87.34 -104.23,-86.34 -103.51,-85.52 -102.79,-84.71 -101.47,-83.82 -100.15,-82.93 -99.14,-82.18 -98.14,-81.42 -96.85,-80.78 -95.56,-80.14 -93.83,-79.26 -92.10,-78.37 -90.75,-77.61 -89.41,-76.85 -88.10,-76.26 -86.78,-75.67 -85.03,-74.92 -83.27,-74.17 -81.55,-73.58 -79.83,-72.99 -78.61,-72.33 -77.39,-71.66 -75.92,-70.78 -74.45,-69.90 -72.95,-69.08 -71.46,-68.26 -69.63,-67.44 -67.80,-66.63 -66.50,-65.57 -65.20,-64.51 -63.38,-63.25 -61.57,-61.98 -59.88,-60.86 -58.20,-59.74 -56.24,-58.39 -54.27,-57.05 -52.24,-55.75 -50.20,-54.45 -47.42,-52.69 -44.64,-50.93 -42.54,-49.85 -40.45,-48.78 -38.11,-47.50 -35.77,-46.21 -34.41,-45.23 -33.06,-44.25 -31.07,-43.11 -29.07,-41.97 -27.60,-41.17 -26.13,-40.37 -24.03,-39.13 -21.92,-37.89 -20.27,-36.88 -18.63,-35.88 -16.69,-34.76 -14.75,-33.64 -13.61,-32.96 -12.48,-32.28 -9.91,-31.27 -7.34,-30.25 -6.23,-29.71 -5.11,-29.18 -4.98,-29.09 -4.85,-29.01 -4.74,-28.89 -4.63,-28.78 -4.55,-28.64 -4.47,-28.50 -4.43,-28.35 -4.38,-28.20 -4.38,-28.04 -4.37,-27.88 -4.41,-27.73 -4.44,-27.57 -4.51,-27.43 -4.58,-27.29 -4.68,-27.16 -4.78,-27.04 -4.91,-26.95 -5.03,-26.85 -5.18,-26.79 -5.32,-26.73 -5.48,-26.71 -5.64,-26.68 -5.80,-26.70 -5.95,-26.71 -6.10,-26.76 -6.25,-26.81 -6.25,-26.81 L -6.25,-26.81 Z"></path></g><g stroke-linecap="round"><g transform="translate(483.2276316938876 242.71467632438987) rotate(0 142.5 -0.5)"><path d="M-1.02 -0.8 C104.08 -2.27, 206.86 -2.7, 284.28 -0.81 M0.58 0.46 C66.16 -1.59, 130.94 -2.75, 285.58 -0.8" stroke="#1864ab" stroke-width="4" fill="none"></path></g></g><mask></mask><g transform="translate(773.2276316938876 241.71467632438987) rotate(0 0.00004999999998744897 0.00004999999998744897)" stroke="none"><path fill="#c92a2a" d="M 6.28,-6.28 Q 6.28,-6.28 7.11,-5.11 7.95,-3.94 8.37,-2.57 8.80,-1.19 8.76,0.23 8.72,1.67 8.22,3.02 7.73,4.37 6.83,5.49 5.93,6.61 4.72,7.38 3.50,8.15 2.11,8.50 0.72,8.85 -0.71,8.73 -2.14,8.61 -3.46,8.05 -4.78,7.48 -5.85,6.52 -6.92,5.56 -7.63,4.31 -8.33,3.06 -8.60,1.65 -8.87,0.23 -8.68,-1.18 -8.49,-2.60 -7.85,-3.89 -7.21,-5.18 -6.19,-6.19 -5.18,-7.21 -3.89,-7.85 -2.60,-8.49 -1.18,-8.68 0.24,-8.87 1.65,-8.60 3.06,-8.33 4.31,-7.62 5.56,-6.92 6.52,-5.85 7.48,-4.78 8.05,-3.46 8.62,-2.14 8.73,-0.70 8.85,0.72 8.50,2.11 8.15,3.51 7.38,4.72 6.61,5.93 5.48,6.83 4.36,7.73 3.02,8.22 1.67,8.72 0.23,8.76 -1.20,8.80 -2.57,8.37 -3.94,7.95 -5.11,7.11 -6.28,6.27 -6.28,6.27 -6.28,6.28 -6.94,5.43 -7.60,4.59 -8.04,3.61 -8.48,2.64 -8.67,1.58 -8.86,0.53 -8.80,-0.53 -8.73,-1.60 -8.41,-2.62 -8.09,-3.64 -7.54,-4.56 -6.99,-5.47 -6.23,-6.23 -5.47,-6.99 -4.56,-7.54 -3.64,-8.10 -2.62,-8.41 -1.60,-8.73 -0.53,-8.80 0.53,-8.86 1.59,-8.67 2.64,-8.48 3.61,-8.04 4.59,-7.60 5.43,-6.94 6.28,-6.28 6.28,-6.28 L 6.28,-6.28 Z"></path></g><g transform="translate(195.24255866381299 244.34840662721) rotate(179.774427230366 0.00005000000000165983 0.00004999999998744897)" stroke="none"><path fill="#c92a2a" d="M 6.28,-6.28 Q 6.28,-6.28 7.11,-5.11 7.95,-3.94 8.37,-2.57 8.80,-1.19 8.76,0.23 8.72,1.67 8.22,3.02 7.73,4.37 6.83,5.49 5.93,6.61 4.72,7.38 3.50,8.15 2.11,8.50 0.72,8.85 -0.71,8.73 -2.14,8.61 -3.46,8.05 -4.78,7.48 -5.85,6.52 -6.92,5.56 -7.63,4.31 -8.33,3.06 -8.60,1.65 -8.87,0.23 -8.68,-1.18 -8.49,-2.60 -7.85,-3.89 -7.21,-5.18 -6.19,-6.19 -5.18,-7.21 -3.89,-7.85 -2.60,-8.49 -1.18,-8.68 0.24,-8.87 1.65,-8.60 3.06,-8.33 4.31,-7.62 5.56,-6.92 6.52,-5.85 7.48,-4.78 8.05,-3.46 8.62,-2.14 8.73,-0.70 8.85,0.72 8.50,2.11 8.15,3.51 7.38,4.72 6.61,5.93 5.48,6.83 4.36,7.73 3.02,8.22 1.67,8.72 0.23,8.76 -1.20,8.80 -2.57,8.37 -3.94,7.95 -5.11,7.11 -6.28,6.27 -6.28,6.27 -6.28,6.28 -6.94,5.43 -7.60,4.59 -8.04,3.61 -8.48,2.64 -8.67,1.58 -8.86,0.53 -8.80,-0.53 -8.73,-1.60 -8.41,-2.62 -8.09,-3.64 -7.54,-4.56 -6.99,-5.47 -6.23,-6.23 -5.47,-6.99 -4.56,-7.54 -3.64,-8.10 -2.62,-8.41 -1.60,-8.73 -0.53,-8.80 0.53,-8.86 1.59,-8.67 2.64,-8.48 3.61,-8.04 4.59,-7.60 5.43,-6.94 6.28,-6.28 6.28,-6.28 L 6.28,-6.28 Z"></path></g><g transform="translate(635.2276316938876 207.71467632438987) rotate(0 6.669990539550781 12.5)"><text x="0" y="0" font-family="Virgil, Segoe UI Emoji" font-size="20px" fill="#1864ab" text-anchor="start" style="white-space: pre;" direction="ltr" dominant-baseline="text-before-edge">a</text></g><g stroke-linecap="round"><g transform="translate(484.2276316938876 242.71467632438987) rotate(0 -0.5 -71.5)"><path d="M0.35 0.74 C0.27 -23.01, -0.38 -119.26, -0.72 -143.02 M-0.93 0.08 C-1.11 -23.42, -1.2 -117.56, -1.51 -141.5" stroke="#087f5b" stroke-width="4" fill="none"></path></g></g><mask></mask><g transform="translate(489.2276316938876 151.71467632438987) rotate(0 5.079994201660156 12.5)"><text x="0" y="0" font-family="Virgil, Segoe UI Emoji" font-size="20px" fill="#087f5b" text-anchor="start" style="white-space: pre;" direction="ltr" dominant-baseline="text-before-edge">b</text></g><g transform="translate(924.2276316938876 198.71467632438987) rotate(0 5.6199951171875 12.5)"><text x="0" y="0" font-family="Virgil, Segoe UI Emoji" font-size="20px" fill="#000000" text-anchor="start" style="white-space: pre;" direction="ltr" dominant-baseline="text-before-edge">x</text></g><g transform="translate(452.2276316938876 13.71467632438987) rotate(0 4.689994812011719 12.5)"><text x="0" y="0" font-family="Virgil, Segoe UI Emoji" font-size="20px" fill="#000000" text-anchor="start" style="white-space: pre;" direction="ltr" dominant-baseline="text-before-edge">y</text></g><g transform="translate(770.2276316938876 22.71467632438987) rotate(0 45.919944763183594 12.5)"><text x="0" y="0" font-family="Virgil, Segoe UI Emoji" font-size="20px" fill="#000000" text-anchor="start" style="white-space: pre;" direction="ltr" dominant-baseline="text-before-edge">y=(b/a)*x</text></g><g transform="translate(753.8376780806063 427.21467632438987) rotate(0 50.029937744140625 12.5)"><text x="0" y="0" font-family="Virgil, Segoe UI Emoji" font-size="20px" fill="#000000" text-anchor="start" style="white-space: pre;" direction="ltr" dominant-baseline="text-before-edge">y=-(b/a)*x</text></g></svg>