<svg version="1.1" xmlns="http://www.w3.org/2000/svg" viewBox="0 0 485.74604296684265 374.8816913418006" width="485.74604296684265" height="374.8816913418006" filter="invert(93%) hue-rotate(180deg)">
  <!-- svg-source:excalidraw -->
  
  <defs>
    <style class="style-fonts">
      @font-face {
        font-family: "Virgil";
        src: url("https://unpkg.com/@excalidraw/excalidraw@0.15.3/dist/excalidraw-assets/Virgil.woff2");
      }
      @font-face {
        font-family: "Cascadia";
        src: url("https://unpkg.com/@excalidraw/excalidraw@0.15.3/dist/excalidraw-assets/Cascadia.woff2");
      }
    </style>
  </defs>
  <rect x="0" y="0" width="485.74604296684265" height="374.8816913418006" fill="#ffffff"></rect><g stroke-linecap="round"><g transform="translate(201.6944988593459 39) rotate(0 -0.5 163)"><path d="M-0.89 -0.77 C-1.05 53.31, -0.96 270.3, -1.03 324.91 M0.84 1.44 C0.52 55.6, -1.48 271.95, -2 325.88" stroke="#000000" stroke-width="1" fill="none"></path></g></g><mask></mask><g stroke-linecap="round"><g transform="translate(10.694498859345913 210) rotate(0 232 2.5)"><path d="M-0.69 -0.95 C76.78 -0.44, 387.6 3.06, 465.05 4.09 M1.14 1.16 C78.53 2.32, 387.63 4.23, 464.66 5.14" stroke="#000000" stroke-width="1" fill="none"></path></g></g><mask></mask><g transform="translate(313.6944988593459 37) rotate(0 -118 69.5)" stroke="none"><path fill="#000000" d="M 1.21,0.48 Q 1.21,0.48 0.64,1.92 0.06,3.36 -0.78,4.91 -1.64,6.45 -2.24,7.88 -2.85,9.31 -3.42,10.54 -3.98,11.77 -5.16,13.27 -6.34,14.78 -7.06,15.89 -7.78,17.00 -8.98,18.67 -10.18,20.33 -11.85,22.49 -13.51,24.64 -15.07,26.69 -16.64,28.75 -19.01,32.19 -21.38,35.62 -23.84,39.11 -26.30,42.60 -29.12,45.59 -31.95,48.58 -34.82,52.09 -37.69,55.59 -40.07,58.53 -42.45,61.47 -44.64,63.90 -46.82,66.33 -49.79,69.11 -52.76,71.90 -54.87,73.92 -56.97,75.94 -59.01,77.95 -61.05,79.96 -62.82,81.43 -64.60,82.89 -66.17,84.34 -67.74,85.79 -69.33,87.02 -70.91,88.26 -72.11,89.32 -73.31,90.38 -74.82,91.21 -76.32,92.04 -78.28,93.47 -80.23,94.89 -81.70,95.82 -83.17,96.76 -85.45,98.54 -87.73,100.33 -89.61,101.70 -91.48,103.06 -93.97,105.05 -96.46,107.05 -99.00,108.79 -101.55,110.54 -104.62,112.70 -107.69,114.86 -110.14,116.64 -112.59,118.42 -115.69,120.35 -118.78,122.29 -121.25,123.69 -123.73,125.09 -126.25,126.28 -128.77,127.46 -131.35,128.28 -133.92,129.09 -135.84,129.71 -137.75,130.33 -139.10,130.86 -140.45,131.40 -141.83,132.18 -143.21,132.95 -144.54,133.35 -145.87,133.75 -147.35,133.92 -148.83,134.08 -149.87,134.41 -150.91,134.74 -152.38,134.91 -153.85,135.08 -154.88,135.41 -155.91,135.73 -157.89,136.24 -159.87,136.74 -161.34,136.91 -162.82,137.08 -164.40,137.68 -165.98,138.28 -167.06,138.57 -168.15,138.86 -169.55,139.00 -170.96,139.13 -172.12,139.18 -173.27,139.23 -174.63,139.26 -175.99,139.28 -177.43,139.29 -178.86,139.29 -179.90,139.57 -180.93,139.84 -182.09,139.98 -183.25,140.12 -184.33,140.17 -185.40,140.23 -187.45,140.26 -189.50,140.29 -191.79,140.30 -194.09,140.31 -195.21,140.31 -196.33,140.31 -198.41,140.31 -200.48,140.31 -201.78,140.31 -203.08,140.31 -204.20,140.31 -205.33,140.31 -206.96,140.31 -208.59,140.31 -209.85,140.31 -211.12,140.31 -212.52,140.31 -213.92,140.31 -215.09,140.31 -216.26,140.31 -217.34,140.31 -218.41,140.31 -220.74,140.31 -223.07,140.31 -224.84,140.31 -226.62,140.31 -227.88,140.31 -229.14,140.31 -230.60,140.31 -232.05,140.31 -233.82,140.31 -235.59,140.31 -235.80,140.27 -236.01,140.24 -236.20,140.14 -236.38,140.04 -236.53,139.89 -236.68,139.73 -236.76,139.54 -236.85,139.35 -236.88,139.14 -236.90,138.92 -236.85,138.72 -236.81,138.51 -236.70,138.33 -236.59,138.14 -236.43,138.01 -236.27,137.87 -236.07,137.79 -235.87,137.71 -235.66,137.70 -235.45,137.69 -235.24,137.75 -235.04,137.80 -234.86,137.92 -234.69,138.04 -234.56,138.21 -234.43,138.38 -234.36,138.58 -234.29,138.78 -234.29,139.00 -234.29,139.21 -234.36,139.41 -234.43,139.61 -234.56,139.78 -234.69,139.95 -234.86,140.07 -235.04,140.19 -235.24,140.24 -235.45,140.30 -235.66,140.29 -235.87,140.28 -236.07,140.20 -236.27,140.12 -236.43,139.98 -236.59,139.84 -236.70,139.66 -236.81,139.48 -236.85,139.27 -236.90,139.07 -236.88,138.85 -236.85,138.64 -236.76,138.45 -236.68,138.26 -236.53,138.10 -236.38,137.95 -236.20,137.85 -236.01,137.75 -235.80,137.72 -235.59,137.68 -235.59,137.68 -235.59,137.68 -233.82,137.68 -232.05,137.68 -230.60,137.68 -229.14,137.68 -227.88,137.68 -226.62,137.68 -224.84,137.68 -223.07,137.68 -220.74,137.68 -218.41,137.68 -217.34,137.68 -216.26,137.68 -215.09,137.68 -213.92,137.68 -212.52,137.68 -211.12,137.68 -209.85,137.68 -208.59,137.68 -206.96,137.68 -205.33,137.68 -204.20,137.68 -203.08,137.68 -201.78,137.68 -200.48,137.68 -198.41,137.68 -196.34,137.68 -195.21,137.68 -194.09,137.68 -191.81,137.67 -189.52,137.67 -187.53,137.64 -185.53,137.61 -183.55,137.45 -181.56,137.29 -180.23,136.98 -178.89,136.67 -177.46,136.66 -176.03,136.65 -174.71,136.63 -173.39,136.61 -172.29,136.56 -171.19,136.52 -169.04,136.17 -166.89,135.82 -165.01,135.15 -163.12,134.47 -161.86,134.34 -160.60,134.22 -158.64,133.72 -156.68,133.22 -155.41,132.85 -154.14,132.47 -152.90,132.35 -151.66,132.22 -150.39,131.85 -149.11,131.47 -147.85,131.35 -146.59,131.22 -145.53,130.94 -144.48,130.65 -142.95,129.80 -141.42,128.96 -139.99,128.39 -138.56,127.83 -136.63,127.21 -134.71,126.59 -132.30,125.84 -129.89,125.08 -127.45,123.94 -125.02,122.80 -122.60,121.43 -120.17,120.06 -117.15,118.18 -114.13,116.30 -111.67,114.51 -109.20,112.72 -106.12,110.55 -103.03,108.37 -100.57,106.68 -98.10,105.00 -95.56,102.97 -93.03,100.94 -91.19,99.60 -89.35,98.26 -86.96,96.40 -84.58,94.54 -83.17,93.65 -81.77,92.76 -79.67,91.25 -77.57,89.73 -76.31,89.07 -75.04,88.40 -73.78,87.29 -72.52,86.18 -71.02,85.02 -69.52,83.85 -67.90,82.36 -66.27,80.87 -64.58,79.48 -62.89,78.08 -60.84,76.07 -58.79,74.05 -56.67,72.01 -54.56,69.98 -51.67,67.27 -48.77,64.57 -46.63,62.19 -44.49,59.82 -42.11,56.87 -39.72,53.93 -36.79,50.35 -33.86,46.78 -31.15,43.93 -28.44,41.09 -25.99,37.61 -23.54,34.13 -21.13,30.64 -18.73,27.16 -17.16,25.10 -15.59,23.03 -13.95,20.92 -12.31,18.80 -11.15,17.18 -9.98,15.56 -9.19,14.35 -8.40,13.14 -7.38,11.90 -6.36,10.65 -5.81,9.46 -5.26,8.28 -4.60,6.73 -3.93,5.18 -3.15,3.78 -2.36,2.38 -1.79,0.94 -1.21,-0.48 -1.14,-0.62 -1.06,-0.76 -0.96,-0.88 -0.85,-0.99 -0.72,-1.08 -0.58,-1.17 -0.44,-1.22 -0.29,-1.28 -0.13,-1.29 0.02,-1.31 0.18,-1.29 0.33,-1.26 0.48,-1.21 0.63,-1.15 0.75,-1.05 0.88,-0.96 0.99,-0.84 1.09,-0.72 1.16,-0.58 1.23,-0.44 1.27,-0.28 1.30,-0.13 1.30,0.02 1.30,0.18 1.26,0.33 1.21,0.48 1.21,0.48 L 1.21,0.48 Z"></path></g><g transform="translate(237.6944988593459 321) rotate(0 86 -111.5)" stroke="none"><path fill="#000000" d="M -1.31,0 Q -1.31,0 -1.31,-1.43 -1.31,-2.87 -1.31,-4.92 -1.31,-6.97 -1.31,-9.85 -1.31,-12.74 -0.43,-16.97 0.43,-21.20 1.09,-24.66 1.74,-28.11 2.59,-32.47 3.45,-36.82 4.10,-39.83 4.75,-42.84 5.62,-45.34 6.50,-47.85 7.43,-50.60 8.37,-53.34 9.05,-55.38 9.74,-57.41 10.60,-60.26 11.46,-63.12 12.41,-65.81 13.36,-68.50 13.73,-70.95 14.11,-73.40 14.87,-76.02 15.63,-78.63 16.23,-80.84 16.83,-83.05 17.68,-85.48 18.52,-87.90 18.85,-89.69 19.18,-91.47 19.64,-92.92 20.10,-94.37 20.87,-96.42 21.64,-98.47 22.26,-99.93 22.88,-101.39 23.40,-103.35 23.92,-105.31 24.76,-107.15 25.61,-108.99 26.82,-111.46 28.03,-113.94 30.04,-116.80 32.04,-119.65 33.70,-122.51 35.36,-125.37 37.02,-127.28 38.67,-129.19 40.16,-131.33 41.65,-133.48 42.57,-134.97 43.49,-136.45 45.10,-138.33 46.71,-140.20 47.59,-141.73 48.46,-143.25 50.03,-145.69 51.60,-148.13 53.13,-150.33 54.67,-152.53 56.80,-154.95 58.93,-157.37 60.04,-159.15 61.15,-160.94 63.15,-163.25 65.14,-165.56 66.60,-166.86 68.06,-168.15 69.78,-169.81 71.51,-171.47 73.15,-172.79 74.80,-174.12 76.64,-175.53 78.49,-176.95 79.81,-178.10 81.14,-179.26 82.68,-180.12 84.23,-180.98 85.56,-182.35 86.89,-183.73 88.43,-184.98 89.97,-186.23 91.76,-187.62 93.56,-189.00 95.85,-190.22 98.14,-191.44 100.17,-192.77 102.20,-194.09 105.12,-195.83 108.04,-197.57 110.35,-199.41 112.66,-201.24 114.61,-202.38 116.56,-203.52 118.79,-204.84 121.02,-206.17 122.82,-207.30 124.62,-208.42 125.99,-209.21 127.35,-209.99 129.10,-210.91 130.84,-211.83 132.27,-212.26 133.69,-212.69 134.77,-213.12 135.84,-213.55 137.43,-214.30 139.03,-215.05 139.94,-215.63 140.86,-216.20 142.55,-216.81 144.25,-217.42 145.45,-217.93 146.65,-218.44 147.97,-219.20 149.29,-219.96 151.34,-220.52 153.40,-221.08 154.83,-221.42 156.27,-221.77 157.65,-221.99 159.03,-222.22 160.53,-222.26 162.04,-222.29 163.20,-222.55 164.36,-222.80 165.70,-223.02 167.05,-223.23 169.04,-223.59 171.02,-223.95 171.22,-224.03 171.42,-224.10 171.63,-224.11 171.85,-224.12 172.05,-224.06 172.25,-223.99 172.43,-223.87 172.60,-223.75 172.73,-223.58 172.85,-223.41 172.92,-223.20 172.98,-223.00 172.98,-222.79 172.97,-222.58 172.90,-222.38 172.83,-222.18 172.70,-222.01 172.56,-221.84 172.39,-221.73 172.21,-221.61 172.00,-221.56 171.80,-221.51 171.59,-221.52 171.37,-221.54 171.18,-221.62 170.98,-221.70 170.82,-221.84 170.66,-221.98 170.56,-222.17 170.45,-222.35 170.41,-222.56 170.37,-222.77 170.39,-222.98 170.42,-223.19 170.51,-223.38 170.61,-223.57 170.76,-223.72 170.90,-223.87 171.09,-223.97 171.28,-224.07 171.49,-224.10 171.70,-224.13 171.91,-224.09 172.12,-224.05 172.31,-223.95 172.49,-223.84 172.64,-223.69 172.78,-223.53 172.87,-223.33 172.95,-223.14 172.97,-222.93 172.99,-222.72 172.94,-222.51 172.89,-222.30 172.78,-222.12 172.66,-221.94 172.50,-221.81 172.34,-221.68 172.34,-221.68 172.34,-221.68 170.31,-221.16 168.28,-220.65 166.75,-220.49 165.23,-220.33 163.66,-220.00 162.08,-219.67 160.68,-219.64 159.29,-219.60 158.22,-219.45 157.16,-219.30 155.47,-218.89 153.79,-218.48 152.19,-218.08 150.59,-217.68 149.13,-216.85 147.67,-216.02 146.39,-215.48 145.11,-214.95 143.67,-214.46 142.24,-213.97 141.19,-213.32 140.14,-212.67 138.48,-211.89 136.81,-211.11 135.62,-210.64 134.43,-210.17 133.24,-209.83 132.06,-209.50 130.36,-208.61 128.66,-207.72 127.34,-206.96 126.01,-206.20 124.19,-205.05 122.36,-203.91 120.12,-202.58 117.88,-201.25 116.09,-200.22 114.29,-199.18 111.84,-197.25 109.38,-195.32 106.51,-193.60 103.63,-191.89 101.50,-190.51 99.36,-189.12 97.26,-188.02 95.16,-186.92 93.39,-185.56 91.62,-184.19 90.18,-183.03 88.75,-181.88 87.13,-180.28 85.51,-178.69 84.18,-177.98 82.85,-177.26 81.47,-176.07 80.09,-174.87 78.27,-173.47 76.45,-172.07 74.89,-170.82 73.33,-169.57 71.56,-167.88 69.80,-166.18 68.46,-165.01 67.12,-163.84 65.25,-161.69 63.37,-159.53 62.14,-157.59 60.90,-155.64 58.86,-153.33 56.82,-151.02 55.31,-148.87 53.81,-146.71 52.27,-144.32 50.73,-141.93 49.72,-140.21 48.70,-138.49 47.21,-136.78 45.72,-135.06 44.76,-133.52 43.80,-131.98 42.23,-129.72 40.65,-127.46 39.14,-125.75 37.63,-124.04 35.91,-121.09 34.19,-118.14 32.29,-115.46 30.39,-112.78 29.19,-110.33 27.99,-107.88 27.22,-106.25 26.45,-104.63 25.88,-102.49 25.30,-100.36 24.70,-98.95 24.10,-97.55 23.35,-95.56 22.60,-93.57 22.18,-92.27 21.76,-90.98 21.38,-89.01 21.01,-87.04 20.19,-84.70 19.37,-82.36 18.76,-80.12 18.15,-77.89 17.43,-75.44 16.70,-72.99 16.27,-70.31 15.84,-67.63 14.91,-65.00 13.97,-62.36 13.10,-59.47 12.23,-56.57 11.54,-54.53 10.85,-52.50 9.91,-49.74 8.98,-46.98 8.15,-44.63 7.32,-42.28 6.67,-39.30 6.02,-36.31 5.17,-31.97 4.32,-27.63 3.66,-24.14 3.01,-20.66 2.16,-16.70 1.31,-12.73 1.31,-9.85 1.31,-6.97 1.31,-4.92 1.31,-2.87 1.31,-1.43 1.31,0 1.29,0.15 1.27,0.31 1.21,0.46 1.16,0.61 1.07,0.74 0.98,0.87 0.86,0.97 0.74,1.08 0.60,1.15 0.46,1.22 0.31,1.26 0.15,1.30 -0.00,1.30 -0.15,1.30 -0.31,1.26 -0.46,1.22 -0.60,1.15 -0.74,1.08 -0.86,0.97 -0.98,0.87 -1.07,0.74 -1.16,0.61 -1.21,0.46 -1.27,0.31 -1.29,0.15 -1.31,-0.00 -1.31,-0.00 L -1.31,0 Z"></path></g><g stroke-linecap="round"><g transform="translate(70.69449885934591 328) rotate(0 170 -156)"><path d="M-0.49 0.55 C56.21 -51.48, 283.07 -259.15, 339.94 -311.36" stroke="#000000" stroke-width="1.5" fill="none" stroke-dasharray="8 9"></path></g></g><mask></mask><g stroke-linecap="round"><g transform="translate(255.6944988593459 202) rotate(0 8 7.5)"><path d="M0.71 1.16 C3.53 3.63, 14.75 11.55, 17.2 14.04 M-0.38 0.72 C2.36 3.39, 14.42 12.8, 16.88 15.07" stroke="#000000" stroke-width="1" fill="none"></path></g></g><mask></mask><g stroke-linecap="round"><g transform="translate(257.6944988593459 217) rotate(0 5.5 -5.5)"><path d="M0.55 1.09 C2.12 -0.66, 8.97 -9.06, 10.51 -11.06 M-0.62 0.61 C0.65 -0.89, 7.19 -7.86, 9.31 -9.56" stroke="#000000" stroke-width="1" fill="none"></path></g></g><mask></mask><g stroke-linecap="round"><g transform="translate(195.6944988593459 146) rotate(0 5 5.5)"><path d="M-0.2 0.76 C1.72 2.8, 9.56 10.06, 11.13 11.83 M-1.76 0.11 C0.13 1.86, 8.52 8.62, 10.77 10.15" stroke="#000000" stroke-width="1" fill="none"></path></g></g><mask></mask><g stroke-linecap="round"><g transform="translate(204.6944988593459 143) rotate(0 -3 7)"><path d="M-0.6 1.17 C-1.3 3.63, -4.17 12.69, -5.22 14.9 M1.29 0.74 C0.59 2.87, -4.8 11.31, -5.76 13.25" stroke="#000000" stroke-width="1" fill="none"></path></g></g><mask></mask><g transform="translate(424.6944988593459 89) rotate(0 20.449981689453125 12.5)"><text x="0" y="0" font-family="Virgil, Segoe UI Emoji" font-size="20px" fill="#000000" text-anchor="start" style="white-space: pre;" direction="ltr" dominant-baseline="text-before-edge">ln(x)</text></g><g transform="translate(313.6944988593459 11) rotate(0 16.529983520507812 12.5)"><text x="0" y="0" font-family="Virgil, Segoe UI Emoji" font-size="20px" fill="#000000" text-anchor="start" style="white-space: pre;" direction="ltr" dominant-baseline="text-before-edge">e^x</text></g><g transform="translate(423.6944988593459 10) rotate(0 5.6199951171875 12.5)"><text x="0" y="0" font-family="Virgil, Segoe UI Emoji" font-size="20px" fill="#000000" text-anchor="start" style="white-space: pre;" direction="ltr" dominant-baseline="text-before-edge">x</text></g></svg>