<svg version="1.1" xmlns="http://www.w3.org/2000/svg" viewBox="0 0 476.65530105885114 330.7467693400569" width="476.65530105885114" height="330.7467693400569" filter="invert(93%) hue-rotate(180deg)">
  <!-- svg-source:excalidraw -->
  
  <defs>
    <style class="style-fonts">
      @font-face {
        font-family: "Virgil";
        src: url("https://unpkg.com/@excalidraw/excalidraw@0.15.3/dist/excalidraw-assets/Virgil.woff2");
      }
      @font-face {
        font-family: "Cascadia";
        src: url("https://unpkg.com/@excalidraw/excalidraw@0.15.3/dist/excalidraw-assets/Cascadia.woff2");
      }
    </style>
  </defs>
  <rect x="0" y="0" width="476.65530105885114" height="330.7467693400569" fill="#ffffff"></rect><g stroke-linecap="round"><g transform="translate(92.97114827726034 319.37022392787037) rotate(0 -4.5 -154.5)"><path d="M0.36 -0.81 C-1 -52.21, -6.75 -257.95, -8.43 -309.37 M-0.91 1.38 C-2.36 -49.77, -7.43 -256.43, -9.08 -308.03" stroke="#000000" stroke-width="1" fill="none"></path></g><g transform="translate(92.97114827726034 319.37022392787037) rotate(0 -4.5 -154.5)"><path d="M0.61 -279.18 C-1.52 -289.04, -4.55 -295.46, -7.49 -307.03 M2.95 -279.44 C-0.42 -286.35, -4.35 -293.95, -10.02 -308.1" stroke="#000000" stroke-width="1" fill="none"></path></g><g transform="translate(92.97114827726034 319.37022392787037) rotate(0 -4.5 -154.5)"><path d="M-19.9 -278.61 C-16.29 -288.69, -13.58 -295.27, -7.49 -307.03 M-17.56 -278.87 C-15.62 -286.03, -14.23 -293.77, -10.02 -308.1" stroke="#000000" stroke-width="1" fill="none"></path></g></g><mask></mask><g stroke-linecap="round"><g transform="translate(9.97114827726034 233.37022392787037) rotate(0 228.5 -1.5)"><path d="M0.98 -0.47 C76.99 -0.78, 380.51 -1.49, 456.68 -2.06 M0.03 -1.76 C75.81 -2.38, 379.28 -3.47, 455.57 -3.69" stroke="#000000" stroke-width="1" fill="none"></path></g><g transform="translate(9.97114827726034 233.37022392787037) rotate(0 228.5 -1.5)"><path d="M426.64 6.14 C438.84 4.51, 445.6 0.74, 456.09 -4.61 M427.16 6.43 C434.26 3.19, 442.12 1.4, 455.47 -4.02" stroke="#000000" stroke-width="1" fill="none"></path></g><g transform="translate(9.97114827726034 233.37022392787037) rotate(0 228.5 -1.5)"><path d="M426.57 -14.38 C438.76 -8.84, 445.55 -5.43, 456.09 -4.61 M427.09 -14.09 C434.19 -11.84, 442.07 -8.14, 455.47 -4.02" stroke="#000000" stroke-width="1" fill="none"></path></g></g><mask></mask><g stroke-linecap="round" transform="translate(195.97114827726034 38.37022392787037) rotate(0 64.5 64)"><path d="M94.99 8.06 C103.68 11.69, 111.72 19.9, 117.19 28.02 C122.66 36.14, 126.56 47.12, 127.79 56.78 C129.01 66.44, 127.91 76.84, 124.52 86 C121.13 95.16, 114.88 105.17, 107.45 111.75 C100.01 118.32, 89.53 123.15, 79.92 125.46 C70.32 127.77, 59.59 127.88, 49.82 125.6 C40.04 123.31, 28.71 118.19, 21.27 111.75 C13.83 105.31, 8.57 96.19, 5.19 86.96 C1.81 77.73, -0.11 66.17, 1.01 56.38 C2.13 46.58, 6.45 36.35, 11.9 28.21 C17.34 20.06, 25.07 12.38, 33.7 7.52 C42.34 2.67, 52.43 -1.57, 63.72 -0.92 C75.02 -0.27, 94.33 8.46, 101.47 11.41 C108.62 14.35, 107.38 16.01, 106.59 16.74 M72.64 -0.78 C82.27 -0.24, 93.81 6.75, 101.94 12.87 C110.06 19, 117.04 27.45, 121.37 35.97 C125.71 44.49, 127.98 54.15, 127.96 64.02 C127.94 73.88, 125.7 86.58, 121.23 95.14 C116.75 103.71, 109.22 110, 101.12 115.39 C93.02 120.78, 82.45 126.08, 72.63 127.49 C62.8 128.89, 51.76 127.54, 42.2 123.83 C32.64 120.12, 22.11 112.62, 15.27 105.23 C8.43 97.84, 3.42 88.91, 1.16 79.48 C-1.1 70.05, -0.94 58.34, 1.74 48.67 C4.42 39, 10.49 29.11, 17.23 21.46 C23.97 13.81, 32.92 6.34, 42.19 2.76 C51.46 -0.81, 67.81 0.34, 72.84 0.01 C77.87 -0.31, 72.67 -0.41, 72.36 0.82" stroke="#000000" stroke-width="1" fill="none"></path></g><g transform="translate(262.97114827726034 99.37022392787037) rotate(0 0 0.5)" stroke="none"><path fill="#000000" d="M 1.25,-0.39 Q 1.25,-0.39 1.27,-0.07 1.29,0.23 1.16,0.52 1.03,0.80 0.78,1.00 0.53,1.19 0.22,1.25 -0.07,1.31 -0.37,1.21 -0.67,1.12 -0.90,0.90 -1.12,0.67 -1.21,0.37 -1.31,0.07 -1.25,-0.23 -1.19,-0.53 -1.00,-0.78 -0.80,-1.03 -0.52,-1.16 -0.23,-1.29 0.07,-1.27 0.39,-1.25 0.65,-1.09 0.92,-0.92 1.09,-0.65 L 1.25,-0.39 Z"></path></g><g stroke-linecap="round"><g transform="translate(300.97114827726034 52.37022392787037) rotate(0 -18.5 23.5)"><path d="M-1.02 -0.19 C-7.04 7.64, -30.83 40.07, -36.8 47.93 M0.64 -1.33 C-5.45 6.08, -31.29 38.02, -37.65 46.29" stroke="#000000" stroke-width="1" fill="none"></path></g></g><mask></mask><g stroke-linecap="round"><g transform="translate(299.97114827726034 51.37022392787037) rotate(0 0.5 22)"><path d="M-0.88 0.96 C-0.43 8.31, 1.8 36.36, 2.03 43.52 M0.86 0.42 C1.3 7.99, 1.86 37.34, 1.63 44.8" stroke="#000000" stroke-width="1" fill="none"></path></g></g><mask></mask><g stroke-linecap="round"><g transform="translate(260.97114827726034 100.37022392787037) rotate(0 19 -1.5)"><path d="M-0.1 0.84 C6.31 0.46, 32.5 -2.42, 38.75 -2.95 M-1.61 0.24 C4.68 0.13, 31.88 -0.63, 38.2 -1.39" stroke="#000000" stroke-width="1" fill="none"></path></g></g><mask></mask><g transform="translate(289.97114827726034 95.37022392787037) rotate(0 4.5 -4)" stroke="none"><path fill="#000000" d="M -2.49,-0.83 Q -2.49,-0.83 -2.19,-1.78 -1.88,-2.73 -1.21,-3.57 -0.53,-4.41 0.65,-5.75 1.84,-7.08 3.05,-8.39 4.26,-9.69 6.29,-10.41 8.31,-11.12 8.83,-11.10 9.34,-11.08 9.82,-10.90 10.31,-10.72 10.71,-10.39 11.10,-10.07 11.38,-9.63 11.65,-9.19 11.77,-8.69 11.89,-8.19 11.85,-7.68 11.80,-7.17 11.59,-6.69 11.39,-6.22 11.04,-5.84 10.69,-5.46 10.24,-5.21 9.79,-4.96 9.28,-4.87 8.78,-4.77 8.27,-4.85 7.76,-4.92 7.30,-5.15 6.84,-5.39 6.48,-5.75 6.11,-6.12 5.89,-6.59 5.66,-7.05 5.60,-7.56 5.53,-8.07 5.63,-8.58 5.74,-9.08 5.99,-9.53 6.25,-9.98 6.64,-10.32 7.02,-10.66 7.50,-10.86 7.97,-11.06 8.49,-11.09 9.00,-11.13 9.50,-11.00 10.00,-10.88 10.43,-10.59 10.86,-10.31 11.18,-9.91 11.50,-9.50 11.68,-9.02 11.85,-8.53 11.86,-8.02 11.87,-7.50 11.71,-7.01 11.56,-6.52 11.25,-6.10 10.95,-5.69 10.53,-5.39 10.11,-5.09 9.61,-4.95 9.12,-4.80 9.12,-4.80 9.12,-4.80 8.16,-4.80 7.19,-4.79 6.13,-3.84 5.07,-2.89 4.05,-1.80 3.03,-0.71 2.76,0.05 2.49,0.83 2.35,1.11 2.22,1.40 2.02,1.64 1.82,1.89 1.56,2.08 1.31,2.27 1.02,2.40 0.73,2.52 0.41,2.57 0.10,2.62 -0.20,2.60 -0.52,2.57 -0.82,2.47 -1.12,2.37 -1.39,2.20 -1.66,2.03 -1.88,1.80 -2.10,1.57 -2.25,1.30 -2.41,1.03 -2.50,0.72 -2.59,0.42 -2.60,0.10 -2.62,-0.21 -2.55,-0.52 -2.49,-0.83 -2.49,-0.83 L -2.49,-0.83 Z"></path></g><g transform="translate(295.97114827726034 93.37022392787037) rotate(0 0.00004999999998744897 0.00005000000000165983)" stroke="none"><path fill="#000000" d="M 1.57,-1.57 Q 1.57,-1.57 1.77,-1.27 1.98,-0.98 2.09,-0.64 2.20,-0.29 2.19,0.05 2.18,0.41 2.05,0.75 1.93,1.09 1.70,1.37 1.48,1.65 1.18,1.84 0.87,2.04 0.52,2.12 0.18,2.21 -0.17,2.18 -0.53,2.15 -0.86,2.01 -1.19,1.87 -1.46,1.63 -1.73,1.39 -1.90,1.07 -2.08,0.76 -2.15,0.41 -2.21,0.05 -2.17,-0.29 -2.12,-0.65 -1.96,-0.97 -1.80,-1.29 -1.54,-1.54 -1.29,-1.80 -0.97,-1.96 -0.65,-2.12 -0.29,-2.17 0.06,-2.21 0.41,-2.15 0.76,-2.08 1.07,-1.90 1.39,-1.73 1.63,-1.46 1.87,-1.19 2.01,-0.86 2.15,-0.53 2.18,-0.17 2.21,0.18 2.12,0.52 2.03,0.87 1.84,1.18 1.65,1.48 1.37,1.70 1.09,1.93 0.75,2.05 0.41,2.18 0.05,2.19 -0.30,2.20 -0.64,2.09 -0.98,1.98 -1.27,1.77 -1.57,1.56 -1.57,1.57 -1.57,1.57 -1.73,1.35 -1.90,1.14 -2.01,0.90 -2.12,0.66 -2.16,0.39 -2.21,0.13 -2.20,-0.13 -2.18,-0.40 -2.10,-0.65 -2.02,-0.91 -1.88,-1.14 -1.74,-1.36 -1.55,-1.55 -1.36,-1.74 -1.14,-1.88 -0.91,-2.02 -0.65,-2.10 -0.40,-2.18 -0.13,-2.20 0.13,-2.21 0.39,-2.16 0.66,-2.12 0.90,-2.01 1.14,-1.90 1.35,-1.73 1.57,-1.57 1.57,-1.57 L 1.57,-1.57 Z"></path></g><g transform="translate(265.97114827726034 56.37022392787037) rotate(0 4.299995422363281 12.5)"><text x="0" y="0" font-family="Virgil, Segoe UI Emoji" font-size="20px" fill="#000000" text-anchor="start" style="white-space: pre;" direction="ltr" dominant-baseline="text-before-edge">r</text></g><g transform="translate(305.97114827726034 30.37022392787037) rotate(0 20.40998077392578 12.5)"><text x="0" y="0" font-family="Virgil, Segoe UI Emoji" font-size="20px" fill="#000000" text-anchor="start" style="white-space: pre;" direction="ltr" dominant-baseline="text-before-edge">(x,y)</text></g><g stroke-linecap="round"><g transform="translate(96.97114827726034 103.37022392787037) rotate(0 -9.5 -1)"><path d="M-0.63 0.04 C-3.88 -0.28, -15.49 -0.81, -18.42 -1.17 M1.24 -0.98 C-2.21 -1.7, -15.76 -2.88, -19.07 -2.85" stroke="#000000" stroke-width="1" fill="none"></path></g></g><mask></mask><g stroke-linecap="round"><g transform="translate(262.97114827726034 226.37022392787037) rotate(0 0.5 5.5)"><path d="M-0.11 0.56 C-0.13 2.14, 0.67 8.51, 0.95 10.28 M-1.62 -0.19 C-1.9 1.46, -0.47 9.32, -0.02 11.44" stroke="#000000" stroke-width="1" fill="none"></path></g></g><mask></mask><g transform="translate(261.97114827726034 96.37022392787037) rotate(0 0.5 2)" stroke="none"><path fill="#000000" d="M 2.49,0.83 Q 2.49,0.83 2.24,1.70 1.99,2.57 0.61,2.15 -0.75,1.74 -0.40,2.44 -0.04,3.14 -0.50,2.96 -0.97,2.78 -1.35,2.46 -1.73,2.14 -1.99,1.71 -2.25,1.28 -2.36,0.80 -2.47,0.31 -2.42,-0.18 -2.37,-0.67 -2.16,-1.13 -1.96,-1.58 -1.62,-1.95 -1.28,-2.31 -0.84,-2.55 -0.40,-2.78 0.09,-2.87 0.58,-2.95 1.07,-2.87 1.56,-2.80 2.01,-2.57 2.45,-2.33 2.80,-1.97 3.14,-1.61 3.35,-1.16 3.57,-0.71 3.62,-0.21 3.68,0.27 3.57,0.76 3.47,1.25 3.21,1.68 2.96,2.11 2.58,2.43 2.20,2.76 1.74,2.95 1.28,3.13 0.78,3.16 0.28,3.19 -0.19,3.06 -0.67,2.93 -1.09,2.65 -1.50,2.38 -1.81,1.98 -2.11,1.58 -2.27,1.11 -2.44,0.64 -2.44,0.14 -2.44,-0.35 -2.28,-0.82 -2.13,-1.30 -1.83,-1.70 -1.53,-2.09 -1.12,-2.38 -0.70,-2.66 -0.22,-2.80 0.25,-2.93 0.74,-2.91 1.24,-2.88 1.24,-2.88 1.24,-2.88 2.71,1.07 4.18,5.04 3.28,5.64 2.38,6.24 0.98,6.42 -0.40,6.59 -1.35,6.08 -2.30,5.56 -2.81,4.46 -3.32,3.37 -3.23,2.12 -3.14,0.87 -2.82,0.01 -2.49,-0.83 -2.36,-1.12 -2.22,-1.40 -2.02,-1.65 -1.82,-1.89 -1.57,-2.09 -1.31,-2.28 -1.02,-2.40 -0.73,-2.53 -0.42,-2.58 -0.10,-2.63 0.20,-2.60 0.52,-2.58 0.82,-2.48 1.12,-2.38 1.39,-2.21 1.66,-2.04 1.88,-1.81 2.10,-1.58 2.26,-1.30 2.42,-1.03 2.51,-0.72 2.60,-0.42 2.61,-0.10 2.62,0.21 2.56,0.52 2.49,0.83 2.49,0.83 L 2.49,0.83 Z"></path></g><g transform="translate(47.97114827726034 87.37022392787037) rotate(0 4.689994812011719 12.5)"><text x="0" y="0" font-family="Virgil, Segoe UI Emoji" font-size="20px" fill="#000000" text-anchor="start" style="white-space: pre;" direction="ltr" dominant-baseline="text-before-edge">y</text></g><g transform="translate(56.69721933122446 112.37022392787037) rotate(0 4.901206970214844 8)"><text x="0" y="0" font-family="Virgil, Segoe UI Emoji" font-size="12.800000000000011px" fill="#000000" text-anchor="start" style="white-space: pre;" direction="ltr" dominant-baseline="text-before-edge">M</text></g><g transform="translate(254.70711629483844 238.87022392787037) rotate(0 5.6199951171875 12.5)"><text x="0" y="0" font-family="Virgil, Segoe UI Emoji" font-size="20px" fill="#000000" text-anchor="start" style="white-space: pre;" direction="ltr" dominant-baseline="text-before-edge">x</text></g><g transform="translate(263.43318734880256 258.87022392787037) rotate(0 4.901206970214844 8)"><text x="0" y="0" font-family="Virgil, Segoe UI Emoji" font-size="12.800000000000011px" fill="#000000" text-anchor="start" style="white-space: pre;" direction="ltr" dominant-baseline="text-before-edge">M</text></g></svg>