<svg version="1.1" xmlns="http://www.w3.org/2000/svg" viewBox="0 0 588.2999877929688 176" width="588.2999877929688" height="176" filter="invert(93%) hue-rotate(180deg)">
  <!-- svg-source:excalidraw -->
  
  <defs>
    <style class="style-fonts">
      @font-face {
        font-family: "Virgil";
        src: url("https://unpkg.com/@excalidraw/excalidraw@0.15.3/dist/excalidraw-assets/Virgil.woff2");
      }
      @font-face {
        font-family: "Cascadia";
        src: url("https://unpkg.com/@excalidraw/excalidraw@0.15.3/dist/excalidraw-assets/Cascadia.woff2");
      }
    </style>
  </defs>
  <rect x="0" y="0" width="588.2999877929688" height="176" fill="#ffffff"></rect><g stroke-linecap="round"><g transform="translate(29 70) rotate(0 271.5 -0.5)"><path d="M-1.03 -0.73 C89.19 -0.92, 451.64 -0.23, 542.44 -0.41 M0.63 1.51 C90.55 0.9, 450.73 -1.82, 541.2 -2.22" stroke="#000000" stroke-width="1" fill="none"></path></g></g><mask></mask><g transform="translate(45 10) rotate(0 -17.5 54)" stroke="none"><path fill="#000000" d="M 1.09,0.72 Q 1.09,0.72 -0.05,2.45 -1.20,4.17 -2.22,6.27 -3.25,8.37 -4.92,10.55 -6.59,12.73 -8.13,14.76 -9.67,16.79 -11.18,18.80 -12.70,20.81 -14.21,22.81 -15.72,24.82 -16.96,26.28 -18.19,27.73 -18.93,29.09 -19.66,30.46 -20.63,31.74 -21.60,33.02 -22.24,34.05 -22.88,35.09 -23.44,36.09 -24.00,37.10 -24.49,38.33 -24.99,39.57 -25.83,41.05 -26.66,42.54 -26.95,43.58 -27.23,44.62 -27.97,46.60 -28.70,48.59 -29.30,50.01 -29.91,51.44 -30.42,53.38 -30.93,55.33 -31.46,56.82 -31.99,58.31 -32.48,60.84 -32.96,63.36 -33.16,65.57 -33.37,67.77 -33.46,70.13 -33.55,72.50 -33.59,74.08 -33.62,75.67 -33.64,77.20 -33.66,78.73 -33.66,79.96 -33.67,81.18 -33.68,82.62 -33.68,84.06 -33.68,85.55 -33.68,87.04 -33.68,88.13 -33.68,89.22 -33.69,90.61 -33.70,92.00 -32.99,93.65 -32.29,95.31 -32.04,96.64 -31.80,97.98 -31.38,99.22 -30.97,100.46 -30.45,101.57 -29.92,102.67 -29.04,104.80 -28.15,106.93 -28.05,107.12 -27.96,107.31 -27.93,107.52 -27.90,107.73 -27.94,107.94 -27.98,108.15 -28.08,108.33 -28.19,108.52 -28.34,108.66 -28.50,108.80 -28.70,108.88 -28.89,108.97 -29.10,108.99 -29.32,109.00 -29.52,108.95 -29.73,108.90 -29.91,108.79 -30.09,108.67 -30.22,108.51 -30.35,108.34 -30.43,108.14 -30.50,107.94 -30.51,107.73 -30.51,107.52 -30.45,107.32 -30.39,107.11 -30.27,106.94 -30.14,106.77 -29.97,106.64 -29.80,106.52 -29.59,106.46 -29.39,106.39 -29.18,106.40 -28.97,106.40 -28.77,106.48 -28.57,106.55 -28.40,106.68 -28.24,106.82 -28.12,107.00 -28.01,107.17 -27.95,107.38 -27.90,107.59 -27.92,107.80 -27.94,108.01 -28.02,108.21 -28.10,108.40 -28.25,108.56 -28.39,108.72 -28.57,108.82 -28.76,108.93 -28.96,108.97 -29.17,109.01 -29.38,108.98 -29.59,108.95 -29.79,108.86 -29.98,108.76 -30.13,108.61 -30.28,108.46 -30.28,108.46 -30.28,108.46 -31.31,106.70 -32.34,104.93 -32.41,103.62 -32.49,102.32 -33.04,101.09 -33.60,99.87 -34.04,98.61 -34.49,97.36 -34.97,95.94 -35.45,94.52 -35.87,93.33 -36.29,92.14 -36.30,90.68 -36.31,89.22 -36.31,88.13 -36.31,87.04 -36.31,85.55 -36.31,84.06 -36.30,82.61 -36.30,81.17 -36.29,79.94 -36.28,78.70 -36.27,77.15 -36.25,75.61 -36.21,74.00 -36.17,72.40 -36.08,69.96 -35.98,67.52 -35.76,65.19 -35.53,62.87 -35.00,60.15 -34.47,57.43 -33.97,56.04 -33.47,54.65 -32.90,52.54 -32.33,50.42 -31.74,49.04 -31.16,47.67 -30.46,45.78 -29.75,43.89 -29.36,42.58 -28.96,41.26 -28.19,39.92 -27.42,38.57 -26.86,37.20 -26.29,35.83 -25.70,34.76 -25.11,33.70 -24.40,32.56 -23.68,31.42 -22.82,30.31 -21.96,29.19 -21.08,27.61 -20.20,26.04 -19.01,24.64 -17.82,23.24 -16.31,21.23 -14.80,19.23 -13.28,17.21 -11.76,15.20 -10.21,13.16 -8.67,11.13 -7.13,9.17 -5.60,7.20 -4.49,4.96 -3.39,2.72 -2.24,0.99 -1.09,-0.72 -0.98,-0.84 -0.88,-0.96 -0.75,-1.06 -0.62,-1.15 -0.48,-1.21 -0.33,-1.26 -0.17,-1.29 -0.02,-1.31 0.13,-1.29 0.29,-1.28 0.44,-1.22 0.59,-1.17 0.72,-1.08 0.85,-0.99 0.96,-0.88 1.06,-0.76 1.14,-0.62 1.22,-0.48 1.26,-0.33 1.30,-0.17 1.30,-0.02 1.30,0.13 1.27,0.29 1.23,0.44 1.16,0.58 1.09,0.72 1.09,0.72 L 1.09,0.72 Z"></path></g><g transform="translate(567 10) rotate(0 5.5 54)" stroke="none"><path fill="#000000" d="M 1.31,0 Q 1.31,0 1.31,1.15 1.31,2.3 1.31,3.36 1.31,4.42 1.31,6.02 1.31,7.63 1.83,9.60 2.34,11.57 2.87,12.68 3.39,13.78 3.93,15.16 4.46,16.55 4.97,17.99 5.48,19.44 6.23,20.82 6.98,22.20 7.63,23.74 8.29,25.29 8.97,27.52 9.66,29.75 9.85,30.95 10.04,32.16 10.12,34.14 10.20,36.12 10.23,37.51 10.26,38.90 10.81,40.45 11.37,42.00 11.64,43.09 11.90,44.17 12.03,45.87 12.15,47.56 12.21,49.83 12.28,52.10 12.29,53.50 12.30,54.91 12.30,56.95 12.30,58.99 12.30,60.43 12.31,61.87 12.31,64.49 12.31,67.12 12.31,69.09 12.31,71.07 12.31,73.35 12.31,75.63 12.31,77.17 12.31,78.71 12.31,80.24 12.31,81.76 12.00,83.12 11.70,84.49 11.58,85.81 11.47,87.12 10.99,88.82 10.51,90.52 10.07,92.10 9.63,93.68 9.15,95.03 8.66,96.38 8.10,97.33 7.53,98.27 6.67,99.82 5.81,101.38 5.62,102.76 5.42,104.14 4.80,106.38 4.18,108.62 4.02,108.76 3.86,108.90 3.66,108.98 3.47,109.06 3.25,109.07 3.04,109.08 2.84,109.03 2.63,108.97 2.46,108.85 2.28,108.73 2.15,108.56 2.02,108.40 1.95,108.19 1.88,107.99 1.88,107.78 1.88,107.57 1.95,107.37 2.02,107.17 2.14,107.00 2.27,106.83 2.45,106.71 2.62,106.59 2.83,106.53 3.03,106.47 3.24,106.48 3.46,106.49 3.65,106.57 3.85,106.65 4.01,106.78 4.18,106.92 4.29,107.10 4.40,107.29 4.44,107.49 4.49,107.70 4.47,107.91 4.45,108.12 4.36,108.32 4.27,108.51 4.12,108.66 3.98,108.82 3.79,108.92 3.60,109.02 3.39,109.05 3.18,109.09 2.97,109.06 2.76,109.02 2.58,108.92 2.39,108.82 2.24,108.67 2.10,108.52 2.01,108.32 1.92,108.13 1.89,107.92 1.87,107.71 1.91,107.50 1.96,107.29 2.07,107.11 2.18,106.93 2.18,106.93 2.18,106.93 2.58,104.65 2.99,102.36 3.24,101.27 3.49,100.17 4.24,98.88 5.00,97.59 5.67,96.41 6.34,95.22 6.82,93.86 7.29,92.50 7.60,91.34 7.91,90.18 8.39,88.48 8.88,86.79 9.01,85.34 9.14,83.89 9.41,82.82 9.68,81.74 9.68,80.23 9.68,78.71 9.68,77.17 9.68,75.63 9.68,73.35 9.68,71.07 9.68,69.09 9.68,67.12 9.68,64.49 9.68,61.87 9.68,60.43 9.68,58.99 9.67,56.96 9.67,54.93 9.66,53.53 9.65,52.14 9.59,49.94 9.53,47.74 9.20,45.29 8.88,42.84 8.26,40.92 7.64,38.99 7.61,37.61 7.58,36.22 7.36,33.38 7.15,30.54 6.51,28.42 5.86,26.30 5.27,24.87 4.67,23.44 3.84,21.88 3.01,20.32 2.51,18.90 2.01,17.49 1.52,16.20 1.02,14.91 0.49,13.78 -0.04,12.65 -0.68,10.14 -1.31,7.63 -1.31,6.02 -1.31,4.42 -1.31,3.36 -1.31,2.3 -1.31,1.15 -1.31,0 -1.29,-0.15 -1.27,-0.31 -1.21,-0.46 -1.16,-0.61 -1.07,-0.74 -0.98,-0.87 -0.86,-0.97 -0.74,-1.08 -0.60,-1.15 -0.46,-1.22 -0.31,-1.26 -0.15,-1.30 0.00,-1.30 0.15,-1.30 0.31,-1.26 0.46,-1.22 0.60,-1.15 0.74,-1.08 0.86,-0.97 0.98,-0.87 1.07,-0.74 1.16,-0.61 1.21,-0.46 1.27,-0.31 1.29,-0.15 1.31,0.00 1.31,0.00 L 1.31,0 Z"></path></g><g transform="translate(14 141) rotate(0 11.229988098144531 12.5)"><text x="0" y="0" font-family="Virgil, Segoe UI Emoji" font-size="20px" fill="#000000" text-anchor="start" style="white-space: pre;" direction="ltr" dominant-baseline="text-before-edge">-2</text></g><g transform="translate(563 137) rotate(0 7.649993896484375 12.5)"><text x="0" y="0" font-family="Virgil, Segoe UI Emoji" font-size="20px" fill="#000000" text-anchor="start" style="white-space: pre;" direction="ltr" dominant-baseline="text-before-edge">8</text></g><g stroke-linecap="round"><g transform="translate(294 42) rotate(0 -1 24.5)"><path d="M0.32 0.73 C0.15 8.97, -0.56 42.12, -0.96 50.1 M-0.97 0.07 C-1.21 7.94, -1.04 40.28, -1.36 48.55" stroke="#000000" stroke-width="1" fill="none"></path></g></g><mask></mask><g transform="translate(287 106) rotate(0 6.809989929199219 12.5)"><text x="0" y="0" font-family="Virgil, Segoe UI Emoji" font-size="20px" fill="#000000" text-anchor="start" style="white-space: pre;" direction="ltr" dominant-baseline="text-before-edge">3</text></g><g transform="translate(37 81) rotate(0 122.5 15.5)" stroke="none"><path fill="#000000" d="M 1.31,0 Q 1.31,0 1.30,1.41 1.30,2.82 2.13,3.87 2.97,4.92 3.90,6.27 4.83,7.63 5.64,8.90 6.46,10.16 7.47,11.98 8.47,13.80 9.56,14.93 10.64,16.05 11.93,17.54 13.22,19.02 15.25,20.37 17.28,21.72 18.46,22.29 19.65,22.86 21.27,23.39 22.89,23.92 24.47,24.44 26.06,24.97 27.60,25.48 29.14,25.99 30.65,26.50 32.17,27.00 33.56,27.19 34.96,27.38 36.04,27.80 37.11,28.22 39.04,28.72 40.98,29.23 42.79,29.41 44.60,29.59 46.73,29.63 48.86,29.66 50.34,29.67 51.81,29.67 53.88,29.68 55.94,29.68 57.68,29.68 59.42,29.68 61.60,29.68 63.78,29.68 65.56,29.68 67.35,29.68 69.26,29.68 71.17,29.68 72.56,29.68 73.95,29.68 75.40,29.68 76.85,29.68 79.29,29.68 81.73,29.68 82.95,29.68 84.18,29.68 86.14,29.68 88.10,29.68 89.79,29.68 91.49,29.68 93.93,29.68 96.38,29.68 97.99,29.68 99.61,29.68 101.94,29.40 104.28,29.12 105.90,28.99 107.53,28.87 108.98,28.54 110.43,28.21 111.59,27.80 112.74,27.39 114.13,26.92 115.52,26.45 116.65,25.98 117.77,25.50 119.15,25.00 120.54,24.49 121.65,24.01 122.77,23.53 124.05,22.77 125.34,22.02 126.70,21.10 128.06,20.17 129.57,18.93 131.07,17.69 132.71,17.67 134.36,17.64 135.58,18.56 136.79,19.48 138.51,20.36 140.22,21.25 141.75,21.45 143.28,21.64 144.68,21.66 146.08,21.67 147.15,21.68 148.22,21.68 149.74,21.68 151.25,21.68 152.43,21.48 153.61,21.28 154.87,21.02 156.12,20.77 157.68,20.73 159.25,20.69 161.04,20.68 162.83,20.68 164.41,20.68 166.00,20.68 167.61,21.01 169.21,21.33 170.93,21.47 172.64,21.61 174.29,21.93 175.94,22.25 177.12,22.37 178.30,22.49 179.65,22.55 180.99,22.60 182.15,22.62 183.30,22.65 184.36,22.66 185.43,22.67 186.77,22.67 188.11,22.68 189.87,22.68 191.62,22.68 193.76,22.99 195.90,23.31 197.07,23.46 198.24,23.61 199.94,23.64 201.64,23.67 203.59,23.67 205.54,23.68 206.82,23.68 208.10,23.68 209.51,23.68 210.91,23.68 212.66,23.68 214.41,23.68 216.02,23.68 217.62,23.68 219.44,23.68 221.26,23.69 222.70,23.15 224.13,22.61 226.37,21.57 228.61,20.54 229.70,20.04 230.79,19.55 231.73,18.83 232.66,18.11 234.26,17.07 235.86,16.04 236.98,14.74 238.10,13.45 239.51,12.27 240.93,11.09 242.51,9.55 244.09,8.00 244.29,7.93 244.49,7.85 244.70,7.84 244.91,7.84 245.12,7.90 245.32,7.96 245.49,8.08 245.67,8.21 245.79,8.38 245.92,8.55 245.98,8.75 246.04,8.95 246.04,9.17 246.03,9.38 245.96,9.58 245.89,9.78 245.76,9.95 245.63,10.11 245.45,10.23 245.27,10.34 245.06,10.40 244.86,10.45 244.65,10.43 244.43,10.42 244.24,10.33 244.04,10.25 243.88,10.11 243.72,9.97 243.62,9.78 243.51,9.60 243.47,9.39 243.43,9.18 243.46,8.97 243.49,8.76 243.58,8.57 243.67,8.38 243.82,8.23 243.97,8.08 244.16,7.98 244.35,7.89 244.56,7.86 244.77,7.83 244.98,7.87 245.19,7.90 245.37,8.01 245.56,8.11 245.70,8.27 245.85,8.43 245.93,8.62 246.02,8.82 246.03,9.03 246.05,9.24 246.00,9.45 245.95,9.65 245.84,9.83 245.73,10.01 245.56,10.14 245.40,10.28 245.40,10.28 245.40,10.28 244.04,11.66 242.69,13.04 241.45,14.01 240.21,14.99 238.86,16.53 237.51,18.08 235.87,19.15 234.23,20.22 233.06,21.08 231.89,21.94 230.74,22.45 229.59,22.97 228.38,23.46 227.16,23.94 226.08,24.51 225.01,25.08 223.16,25.69 221.31,26.30 219.47,26.31 217.62,26.31 216.02,26.31 214.41,26.31 212.66,26.31 210.91,26.31 209.51,26.31 208.10,26.31 206.82,26.31 205.53,26.31 203.57,26.30 201.61,26.29 199.81,26.26 198.01,26.23 196.59,26.03 195.17,25.83 193.40,25.57 191.62,25.31 189.86,25.31 188.10,25.31 186.75,25.30 185.40,25.29 184.32,25.28 183.25,25.27 182.07,25.25 180.89,25.22 179.46,25.17 178.03,25.11 176.73,24.97 175.43,24.83 172.95,24.47 170.46,24.12 169.41,23.96 168.35,23.81 167.18,23.56 166.00,23.31 164.41,23.31 162.83,23.31 161.55,23.31 160.26,23.31 158.79,23.33 157.31,23.34 156.11,23.45 154.90,23.56 153.07,23.94 151.25,24.31 149.74,24.31 148.22,24.31 147.14,24.30 146.06,24.30 144.60,24.28 143.15,24.27 141.94,24.16 140.73,24.05 139.20,23.53 137.66,23.01 136.57,22.35 135.48,21.69 133.99,20.79 132.51,19.89 131.25,20.92 130.00,21.94 128.33,23.12 126.65,24.29 125.23,25.11 123.81,25.94 122.63,26.45 121.44,26.96 120.11,27.44 118.78,27.93 117.58,28.43 116.37,28.93 114.99,29.40 113.61,29.87 112.30,30.33 111.00,30.78 109.37,31.13 107.73,31.48 106.16,31.60 104.59,31.72 102.10,32.02 99.61,32.31 97.99,32.31 96.38,32.31 93.93,32.31 91.49,32.31 89.79,32.31 88.10,32.31 86.14,32.31 84.18,32.31 82.95,32.31 81.73,32.31 79.29,32.31 76.85,32.31 75.40,32.31 73.95,32.31 72.56,32.31 71.17,32.31 69.26,32.31 67.35,32.31 65.56,32.31 63.78,32.31 61.60,32.31 59.42,32.31 57.68,32.31 55.94,32.31 53.87,32.30 51.80,32.30 50.32,32.30 48.84,32.29 47.37,32.28 45.89,32.27 44.11,32.17 42.33,32.07 40.34,31.56 38.34,31.05 36.46,30.51 34.57,29.98 32.96,29.74 31.34,29.50 29.83,28.99 28.31,28.49 26.77,27.97 25.24,27.46 23.65,26.94 22.06,26.41 20.27,25.81 18.49,25.22 17.06,24.50 15.64,23.77 14.68,22.99 13.72,22.20 12.43,21.39 11.14,20.58 10.08,19.35 9.02,18.12 7.55,16.49 6.07,14.85 5.12,13.16 4.18,11.47 3.31,10.09 2.43,8.70 1.69,7.65 0.96,6.60 -0.16,4.76 -1.30,2.92 -1.30,1.46 -1.31,0 -1.29,-0.15 -1.27,-0.31 -1.21,-0.46 -1.16,-0.61 -1.07,-0.74 -0.98,-0.87 -0.86,-0.97 -0.74,-1.08 -0.60,-1.15 -0.46,-1.22 -0.31,-1.26 -0.15,-1.30 0.00,-1.30 0.15,-1.30 0.31,-1.26 0.46,-1.22 0.60,-1.15 0.74,-1.08 0.86,-0.97 0.98,-0.87 1.07,-0.74 1.16,-0.61 1.21,-0.46 1.27,-0.31 1.29,-0.15 1.31,0.00 1.31,0.00 L 1.31,0 Z"></path></g><g transform="translate(315 79) rotate(0 125 12.5)" stroke="none"><path fill="#000000" d="M 1.14,-0.65 Q 1.14,-0.65 2.28,1.35 3.43,3.36 4.69,4.67 5.95,5.98 6.81,6.87 7.66,7.76 9.37,8.92 11.07,10.08 12.70,11.18 14.32,12.28 16.18,13.62 18.04,14.96 19.67,16.09 21.31,17.23 23.04,17.93 24.77,18.64 26.15,19.26 27.52,19.89 28.69,20.44 29.85,21.00 30.92,21.52 31.99,22.04 33.83,22.61 35.66,23.18 37.89,24.05 40.12,24.91 41.77,25.10 43.41,25.29 45.30,25.40 47.19,25.51 49.15,25.56 51.10,25.61 53.09,25.63 55.07,25.65 57.06,25.66 59.05,25.67 60.47,25.67 61.89,25.68 63.36,25.68 64.83,25.68 66.60,25.68 68.37,25.68 69.70,25.68 71.03,25.68 72.33,25.41 73.62,25.13 74.72,24.75 75.82,24.36 77.82,23.88 79.82,23.40 81.16,22.93 82.50,22.47 84.51,21.70 86.52,20.92 87.93,20.31 89.35,19.70 91.17,19.13 93.00,18.56 94.27,18.05 95.55,17.55 96.55,16.82 97.56,16.10 98.66,15.44 99.76,14.79 100.80,14.24 101.83,13.68 102.88,12.47 103.94,11.26 105.16,10.42 106.39,9.59 107.44,9.02 108.50,8.46 109.79,8.12 111.08,7.79 112.15,7.75 113.22,7.70 114.93,8.04 116.63,8.38 117.63,8.94 118.63,9.49 120.01,10.03 121.39,10.56 122.85,11.35 124.31,12.15 125.66,13.21 127.01,14.27 128.45,15.25 129.88,16.24 130.55,17.14 131.22,18.05 132.45,19.00 133.68,19.95 134.74,20.45 135.80,20.94 137.04,21.24 138.29,21.54 139.56,21.60 140.83,21.65 142.70,21.67 144.57,21.68 146.14,21.68 147.71,21.68 149.72,21.29 151.73,20.89 153.27,19.96 154.80,19.03 156.03,18.67 157.26,18.30 158.68,17.56 160.09,16.81 161.86,16.76 163.64,16.70 164.89,16.69 166.14,16.69 167.48,16.68 168.81,16.68 170.29,17.04 171.77,17.40 173.05,17.84 174.34,18.29 175.77,19.68 177.21,21.07 178.98,21.34 180.76,21.61 182.10,22.06 183.44,22.52 184.64,22.58 185.85,22.65 187.02,22.66 188.19,22.68 189.50,22.68 190.82,22.68 192.57,22.68 194.33,22.68 196.40,22.68 198.48,22.68 199.77,22.68 201.07,22.68 203.57,21.75 206.07,20.82 207.32,20.24 208.57,19.66 210.34,19.10 212.10,18.54 213.35,18.04 214.60,17.54 215.93,16.78 217.26,16.02 218.45,15.39 219.64,14.76 221.06,14.18 222.49,13.60 223.62,13.08 224.75,12.57 226.37,11.78 228.00,10.99 229.04,10.63 230.09,10.27 231.19,9.36 232.29,8.45 233.81,7.66 235.32,6.88 237.32,5.73 239.33,4.58 240.37,3.60 241.41,2.61 242.88,1.78 244.36,0.94 246.45,-0.75 248.53,-2.46 248.71,-2.57 248.89,-2.68 249.10,-2.73 249.31,-2.78 249.52,-2.76 249.73,-2.74 249.93,-2.66 250.12,-2.57 250.28,-2.43 250.43,-2.29 250.54,-2.10 250.64,-1.92 250.68,-1.71 250.72,-1.50 250.69,-1.29 250.66,-1.08 250.56,-0.89 250.46,-0.70 250.31,-0.55 250.16,-0.40 249.97,-0.31 249.78,-0.21 249.57,-0.19 249.36,-0.16 249.15,-0.20 248.94,-0.24 248.76,-0.35 248.57,-0.46 248.43,-0.62 248.29,-0.77 248.21,-0.97 248.13,-1.17 248.11,-1.38 248.10,-1.59 248.15,-1.80 248.20,-2.00 248.32,-2.18 248.43,-2.36 248.60,-2.49 248.77,-2.62 248.97,-2.69 249.17,-2.76 249.38,-2.77 249.59,-2.77 249.79,-2.71 250.00,-2.64 250.17,-2.52 250.34,-2.39 250.46,-2.22 250.58,-2.05 250.65,-1.84 250.71,-1.64 250.70,-1.43 250.69,-1.21 250.62,-1.02 250.54,-0.82 250.41,-0.65 250.27,-0.49 250.27,-0.49 250.27,-0.49 248.87,0.73 247.47,1.96 246.55,2.60 245.63,3.24 244.40,3.89 243.18,4.55 241.91,5.70 240.65,6.85 238.58,8.04 236.51,9.22 235.21,9.87 233.91,10.52 231.53,11.94 229.14,13.35 227.49,14.16 225.83,14.96 224.65,15.50 223.48,16.03 222.17,16.55 220.87,17.08 219.71,17.70 218.55,18.31 217.06,19.14 215.57,19.98 214.23,20.51 212.90,21.04 211.28,21.54 209.67,22.05 208.39,22.64 207.10,23.23 205.38,23.96 203.66,24.69 202.37,25.00 201.09,25.31 199.78,25.31 198.48,25.31 196.40,25.31 194.33,25.31 192.57,25.31 190.82,25.31 189.49,25.30 188.17,25.30 186.97,25.29 185.77,25.27 184.31,25.18 182.85,25.08 181.69,24.65 180.53,24.21 178.55,23.93 176.57,23.65 175.44,22.53 174.31,21.42 173.11,20.76 171.92,20.09 170.37,19.70 168.81,19.31 167.48,19.31 166.15,19.31 164.92,19.32 163.68,19.33 162.09,19.37 160.51,19.40 159.45,20.02 158.39,20.63 157.03,21.07 155.67,21.50 154.74,22.07 153.81,22.63 152.16,23.38 150.52,24.14 149.11,24.22 147.71,24.31 146.13,24.31 144.56,24.30 142.66,24.29 140.77,24.28 139.31,24.21 137.85,24.13 136.24,23.71 134.64,23.30 133.29,22.61 131.95,21.92 130.54,20.77 129.13,19.62 128.11,18.50 127.10,17.38 125.67,16.36 124.24,15.33 122.75,14.42 121.27,13.50 119.54,12.74 117.82,11.99 116.30,11.15 114.79,10.30 113.56,10.33 112.33,10.35 111.16,10.48 109.99,10.61 108.98,11.14 107.98,11.68 106.89,12.38 105.81,13.09 104.47,14.52 103.13,15.95 102.12,16.50 101.10,17.05 100.08,17.65 99.07,18.25 97.80,19.12 96.53,19.98 95.16,20.52 93.78,21.06 92.09,21.59 90.39,22.12 88.92,22.75 87.46,23.37 85.41,24.16 83.36,24.95 81.89,25.45 80.43,25.95 78.56,26.40 76.68,26.84 75.41,27.27 74.15,27.71 72.59,28.01 71.04,28.31 69.70,28.31 68.37,28.31 66.60,28.31 64.82,28.31 63.36,28.30 61.89,28.30 60.46,28.30 59.04,28.30 57.04,28.29 55.04,28.28 53.04,28.26 51.04,28.23 49.04,28.18 47.04,28.13 45.04,28.01 43.03,27.89 40.10,26.96 37.17,26.04 36.01,25.86 34.85,25.68 32.85,25.04 30.85,24.41 29.79,23.89 28.73,23.37 27.58,22.83 26.44,22.28 25.10,21.67 23.76,21.07 21.79,20.23 19.82,19.39 18.16,18.24 16.50,17.09 14.68,15.77 12.85,14.45 11.22,13.35 9.58,12.24 7.68,10.91 5.78,9.59 4.91,8.68 4.04,7.78 2.60,6.23 1.16,4.68 0.01,2.66 -1.14,0.65 -1.20,0.50 -1.26,0.35 -1.28,0.20 -1.31,0.04 -1.29,-0.11 -1.28,-0.26 -1.23,-0.41 -1.18,-0.56 -1.09,-0.70 -1.01,-0.83 -0.89,-0.94 -0.78,-1.05 -0.64,-1.13 -0.50,-1.21 -0.35,-1.25 -0.20,-1.29 -0.04,-1.30 0.11,-1.30 0.26,-1.27 0.42,-1.24 0.56,-1.17 0.70,-1.10 0.82,-1.00 0.95,-0.90 1.04,-0.77 1.14,-0.65 1.14,-0.65 L 1.14,-0.65 Z"></path></g><g transform="translate(162 122.46875) rotate(0 6.17999267578125 12.5)"><text x="0" y="0" font-family="Virgil, Segoe UI Emoji" font-size="20px" fill="#000000" text-anchor="start" style="white-space: pre;" direction="ltr" dominant-baseline="text-before-edge">5</text></g><g transform="translate(423 111.46875) rotate(0 6.17999267578125 12.5)"><text x="0" y="0" font-family="Virgil, Segoe UI Emoji" font-size="20px" fill="#000000" text-anchor="start" style="white-space: pre;" direction="ltr" dominant-baseline="text-before-edge">5</text></g></svg>